<svg width="32" height="30" viewBox="0 0 32 30" fill="none" xmlns="http://www.w3.org/2000/svg">
<path d="M10.4 18.75H29.6C30.04 18.75 30.4 18.3281 30.4 17.8125V2.8125C30.4 2.29688 30.04 1.875 29.6 1.875H22.4V9.375L20 7.5L17.6 9.375V1.875H10.4C9.96 1.875 9.6 2.29688 9.6 2.8125V17.8125C9.6 18.3281 9.96 18.75 10.4 18.75ZM31.2 22.5H6.4V0.9375C6.4 0.421875 6.04 0 5.6 0H0.8C0.36 0 0 0.421875 0 0.9375V2.8125C0 3.32812 0.36 3.75 0.8 3.75H3.2V25.3125C3.2 25.8281 3.56 26.25 4 26.25H8.145C8.055 26.543 8 26.8594 8 27.1875C8 28.7402 9.075 30 10.4 30C11.725 30 12.8 28.7402 12.8 27.1875C12.8 26.8594 12.74 26.543 12.655 26.25H22.55C22.46 26.543 22.405 26.8594 22.405 27.1875C22.405 28.7402 23.48 30 24.805 30C26.13 30 27.205 28.7402 27.205 27.1875C27.205 26.8594 27.145 26.543 27.06 26.25H31.2C31.64 26.25 32 25.8281 32 25.3125V23.4375C32 22.9219 31.64 22.5 31.2 22.5Z" fill="#006341"/>
</svg>
