<svg height="24" viewBox="0 0 511.999 511.999" width="22" fill="#006341" xmlns="http://www.w3.org/2000/svg"><path id="XMLID_98_" d="m507.598 111.559-107.163-107.166c-5.544-5.543-14.423-5.882-20.375-.778l-214.75 184.254c-24.958 21.414-39.981 52.299-41.219 84.736-1.008 26.418 6.861 51.39 22.359 71.733l-83.892 83.895-36.943-36.944c-5.858-5.857-15.355-5.858-21.213 0s-5.858 15.355 0 21.213l95.1 95.104c2.929 2.929 6.768 4.394 10.607 4.394 3.838 0 7.678-1.465 10.606-4.393 5.858-5.858 5.858-15.355 0-21.213l-36.944-36.945 83.894-83.897c19.182 14.615 42.476 22.448 67.222 22.448 1.496 0 3-.029 4.506-.086 32.437-1.238 63.321-16.263 84.734-41.222l184.248-214.758c5.106-5.952 4.767-14.83-.777-20.375zm-206.239 215.598c-15.991 18.639-38.994 29.857-63.11 30.777-23.101.885-44.665-7.459-60.693-23.487s-24.369-37.584-23.487-60.697c.92-24.117 12.138-47.121 30.776-63.112l29.482-25.296 208.11.685zm146.804-171.114c-.103-.002-.203-.016-.307-.016h-199.361l140.553-120.594 87.51 87.513z" stroke="#006341"/></svg>