<svg width="22" height="24" viewBox="0 0 22 24" fill="none" xmlns="http://www.w3.org/2000/svg">
<path d="M20.8093 15.5123L20.8077 15.5206L20.8062 15.529C20.4373 17.6152 19.7088 19.3147 18.6501 20.6639L18.6467 20.6682C17.4123 22.2591 15.9287 23 14.1396 23C13.8202 23 13.4119 22.9057 12.8977 22.6507C12.3181 22.3177 11.6786 22.1562 11.0002 22.1562C10.3214 22.1562 9.68244 22.3179 9.10279 22.6506C8.5885 22.9057 8.18021 23 7.86074 23C6.07166 23 4.588 22.2591 3.35363 20.6682L3.35364 20.6682L3.35025 20.6639C2.29151 19.3147 1.56304 17.6152 1.19408 15.529L1.1926 15.5206L1.19099 15.5123C0.952767 14.2869 0.937192 13.0662 1.14542 11.8435C1.3858 10.4947 1.82651 9.43095 2.43339 8.61311C3.10563 7.71456 3.92892 7.20741 4.93358 7.0335C5.51789 6.94171 6.4365 7.01336 7.75785 7.34335C8.87892 7.64156 9.79742 7.99099 10.528 8.38178L10.9997 8.63407L11.4713 8.38178C12.2019 7.991 13.1204 7.64157 14.2415 7.34336C15.5633 7.01337 16.4824 6.9417 17.0668 7.0335C18.0714 7.2074 18.8946 7.71451 19.5668 8.61295C20.1738 9.43083 20.6145 10.4946 20.8549 11.8436C21.0631 13.0662 21.0476 14.2869 20.8093 15.5123ZM12.475 4.04534L12.4529 4.05084L12.4312 4.05732C12.0705 4.16488 11.6693 4.22996 11.222 4.24606C11.2286 4.11162 11.2404 3.96932 11.2578 3.81889C11.3694 2.86124 11.6713 2.24898 12.0704 1.86055C12.3787 1.59156 12.8225 1.36104 13.4495 1.20466L13.4715 1.19916L13.4933 1.19268C13.8541 1.08508 14.2555 1.01999 14.7029 1.00392C14.6835 1.40172 14.6181 1.75901 14.5132 2.08071L14.5057 2.10396L14.4992 2.12756C14.3427 2.70157 14.1132 3.11116 13.8405 3.4012C13.5328 3.66515 13.0929 3.89125 12.475 4.04534Z" stroke="#006341" stroke-width="2"/>
</svg>
