<svg width="22" height="24" viewBox="0 0 22 24" fill="none" xmlns="http://www.w3.org/2000/svg">
<mask id="path-1-inside-1" fill="white">
<path d="M21.3694 6.78923C20.7184 6.7733 20.1866 6.69563 19.7226 6.18947C19.1109 5.52216 18.796 4.79897 18.8587 4.20544C18.9063 3.75451 18.5554 3.37449 18.1447 3.42652C17.5945 3.49515 16.9276 3.1516 16.3146 2.48279C15.8593 1.98606 15.7127 1.5205 15.7739 0.765016C15.7985 0.461267 15.6407 0.174768 15.3833 0.0557523C15.1259 -0.0632161 14.8275 0.0123462 14.6446 0.242971C13.4665 1.72759 12.8729 3.86284 13.2311 5.77547C11.0821 4.89249 8.43227 5.32135 6.65503 7.26019C4.88867 9.18712 4.4803 12.0776 5.29416 14.4345C3.5357 14.0426 1.57955 14.6949 0.22271 15.9762C0.0113513 16.1758 -0.0579558 16.5013 0.0510965 16.7822C0.160149 17.063 0.422897 17.2357 0.701199 17.2082C1.39079 17.1418 1.81694 17.3023 2.27365 17.8005C2.88783 18.4705 3.20395 19.1974 3.14091 19.7946C3.09343 20.2441 3.44285 20.6254 3.85491 20.5735C4.39643 20.5053 5.05852 20.8499 5.67133 21.5184C6.1307 22.0196 6.20868 22.6011 6.22334 23.3126C6.23605 23.9306 6.92466 24.2291 7.32344 23.794C8.73266 22.2567 9.24389 20.1183 8.84588 18.2552C9.52142 18.5214 10.248 18.6608 10.9998 18.6608C14.4428 18.6608 17.1053 15.7616 17.1053 12C17.1053 11.1796 16.9775 10.3869 16.7334 9.64982C18.4395 10.0836 20.3984 9.5301 21.8107 7.98937C22.2105 7.55325 21.9361 6.80302 21.3694 6.78923ZM7.23097 21.5705C7.08149 21.182 6.8645 20.8313 6.5828 20.524C5.89631 19.7751 5.14373 19.319 4.40661 19.1938C4.29309 18.3839 3.87411 17.5578 3.18508 16.8061C2.93342 16.5316 2.67291 16.3151 2.39555 16.1537C3.83364 15.5039 5.56309 15.5486 6.65495 16.7398C7.80696 17.9965 7.98536 19.9466 7.23097 21.5705ZM7.56647 15.7455C6.33449 14.4015 5.93253 12.3746 6.36027 10.5847L12.2971 17.0613C10.6564 17.5279 8.79844 17.0894 7.56647 15.7455ZM13.5807 16.473L6.89956 9.18431C7.27295 8.5117 7.78208 7.9477 8.41848 7.52714L15.0998 14.8159C14.7271 15.4872 14.2184 16.0517 13.5807 16.473ZM15.6391 13.4157L9.7021 6.93877C11.3524 6.46927 13.2072 6.91725 14.433 8.25454C15.6651 9.59863 16.067 11.6257 15.6391 13.4157ZM15.3445 7.26019C14.2533 6.0698 14.2118 4.18477 14.8061 2.61648C14.9538 2.9191 15.1518 3.20307 15.4031 3.47715C16.0916 4.22827 16.8494 4.68479 17.5935 4.80788C17.7076 5.61375 18.1252 6.43561 18.8111 7.18383C19.0911 7.48926 19.4103 7.725 19.7638 7.88793C18.2768 8.70304 16.5117 8.53349 15.3445 7.26019Z"/>
</mask>
<path d="M19.7226 6.18947L21.1969 4.83804L21.1969 4.83798L19.7226 6.18947ZM18.8587 4.20544L16.8697 3.99546L16.8697 3.99551L18.8587 4.20544ZM18.1447 3.42652L18.3922 5.41115L18.396 5.41067L18.1447 3.42652ZM15.7739 0.765016L17.7674 0.926354L17.7674 0.926317L15.7739 0.765016ZM15.3833 0.0557523L16.2226 -1.75961L16.2223 -1.75974L15.3833 0.0557523ZM14.6446 0.242971L16.2112 1.48614L16.2114 1.48596L14.6446 0.242971ZM13.2311 5.77547L12.471 7.6254L15.8741 9.02367L15.1969 5.40737L13.2311 5.77547ZM6.65503 7.26019L8.12934 8.61164L8.12935 8.61162L6.65503 7.26019ZM5.29416 14.4345L4.85913 16.3866L8.35296 17.1652L7.18463 13.7817L5.29416 14.4345ZM0.22271 15.9762L1.59587 17.4303L1.59591 17.4303L0.22271 15.9762ZM0.701199 17.2082L0.509445 15.2174L0.50442 15.2179L0.701199 17.2082ZM2.27365 17.8005L3.74797 16.4491L3.74791 16.449L2.27365 17.8005ZM3.14091 19.7946L5.12985 20.0046L5.12986 20.0045L3.14091 19.7946ZM3.85491 20.5735L3.60516 18.5891L3.6048 18.5892L3.85491 20.5735ZM5.67133 21.5184L7.14571 20.167L7.14565 20.167L5.67133 21.5184ZM6.22334 23.3126L8.22291 23.2715L8.22291 23.2715L6.22334 23.3126ZM7.32344 23.794L5.84912 22.4426L5.84905 22.4427L7.32344 23.794ZM8.84588 18.2552L9.57912 16.3945L6.11133 15.028L6.89001 18.673L8.84588 18.2552ZM16.7334 9.64982L17.2263 7.71149L13.6866 6.81152L14.8348 10.2786L16.7334 9.64982ZM6.5828 20.524L5.10848 21.8755L5.10859 21.8756L6.5828 20.524ZM4.40661 19.1938L2.42597 19.4714L2.62909 20.9206L4.07182 21.1656L4.40661 19.1938ZM2.39555 16.1537L1.57204 14.3311L-1.96601 15.9297L1.38967 17.8823L2.39555 16.1537ZM6.65495 16.7398L5.1806 18.0912L5.18065 18.0912L6.65495 16.7398ZM6.36027 10.5847L7.8346 9.23326L5.29026 6.45755L4.41505 10.1198L6.36027 10.5847ZM12.2971 17.0613L12.8441 18.9851L15.961 18.0986L13.7714 15.7099L12.2971 17.0613ZM6.89956 9.18431L5.15094 8.21358L4.45152 9.47347L5.42524 10.5357L6.89956 9.18431ZM8.41848 7.52714L9.89279 6.1757L8.7396 4.91766L7.3158 5.85857L8.41848 7.52714ZM15.0998 14.8159L16.8483 15.7868L17.5479 14.5269L16.5741 13.4645L15.0998 14.8159ZM15.6391 13.4157L14.1648 14.7671L16.709 17.5426L17.5843 13.8806L15.6391 13.4157ZM9.7021 6.93877L9.15484 5.01509L6.03835 5.90169L8.22777 8.2902L9.7021 6.93877ZM14.8061 2.61648L16.6035 1.73935L14.575 -2.41744L12.9359 1.90773L14.8061 2.61648ZM15.4031 3.47715L16.8774 2.12571L16.8773 2.12559L15.4031 3.47715ZM17.5935 4.80788L19.5738 4.52745L19.368 3.07422L17.9199 2.83469L17.5935 4.80788ZM18.8111 7.18383L20.2855 5.83239L20.2854 5.83235L18.8111 7.18383ZM19.7638 7.88793L20.7252 9.64172L24.2063 7.73341L20.601 6.0716L19.7638 7.88793ZM21.4184 4.78983C21.2842 4.78655 21.1975 4.78083 21.1356 4.77358C21.0765 4.76665 21.0603 4.76046 21.0697 4.76338C21.083 4.76751 21.1132 4.77904 21.1481 4.80099C21.183 4.82292 21.1992 4.84054 21.1969 4.83804L18.2483 7.54091C19.2881 8.67523 20.5411 8.76956 21.3205 8.78864L21.4184 4.78983ZM21.1969 4.83798C21.0136 4.63802 20.9158 4.47307 20.8715 4.37133C20.8244 4.26334 20.8614 4.28511 20.8476 4.41538L16.8697 3.99551C16.7215 5.39982 17.45 6.67003 18.2483 7.54096L21.1969 4.83798ZM20.8476 4.41543C21.0064 2.91147 19.8033 1.20042 17.8933 1.44238L18.396 5.41067C17.3075 5.54856 16.8062 4.59755 16.8697 3.99546L20.8476 4.41543ZM17.8971 1.4419C18.129 1.41298 18.2331 1.48621 18.1697 1.45353C18.112 1.42378 17.9741 1.33339 17.7889 1.13136L14.8403 3.83423C15.6109 4.67494 16.8763 5.60024 18.3922 5.41114L17.8971 1.4419ZM17.7889 1.13136C17.7437 1.08207 17.7318 1.06142 17.7345 1.06582C17.7392 1.07344 17.7499 1.09384 17.7583 1.12046C17.7755 1.17513 17.7494 1.14876 17.7674 0.926354L13.7804 0.603678C13.7373 1.13676 13.7538 1.72091 13.9428 2.32141C14.137 2.93822 14.4668 3.42675 14.8403 3.83423L17.7889 1.13136ZM17.7674 0.926317C17.8528 -0.130109 17.3139 -1.25505 16.2226 -1.75961L14.544 1.87112C13.9675 1.60458 13.7441 1.05264 13.7804 0.603715L17.7674 0.926317ZM16.2223 -1.75974C15.0826 -2.28649 13.8035 -1.91485 13.0777 -1.00002L16.2114 1.48596C15.8516 1.93954 15.1692 2.16006 14.5443 1.87124L16.2223 -1.75974ZM13.0779 -1.0002C11.564 0.907644 10.7935 3.62398 11.2653 6.14357L15.1969 5.40737C14.9524 4.1017 15.369 2.54754 16.2112 1.48614L13.0779 -1.0002ZM13.9912 3.92554C11.1121 2.74258 7.55718 3.3162 5.18071 5.90875L8.12935 8.61162C9.30736 7.3265 11.0521 7.0424 12.471 7.6254L13.9912 3.92554ZM5.18073 5.90873C2.85559 8.44523 2.38218 12.129 3.40369 15.0873L7.18463 13.7817C6.57843 12.0262 6.92175 9.92901 8.12934 8.61164L5.18073 5.90873ZM5.72919 12.4824C3.22614 11.9246 0.612412 12.8573 -1.15049 14.5222L1.59591 17.4303C2.54668 16.5324 3.84526 16.1607 4.85913 16.3866L5.72919 12.4824ZM-1.15045 14.5221C-1.9811 15.3065 -2.20272 16.5032 -1.81327 17.5061L1.91546 16.0582C2.08681 16.4994 2.0038 17.0451 1.59587 17.4303L-1.15045 14.5221ZM-1.81327 17.5061C-1.41584 18.5296 -0.370467 19.3239 0.897978 19.1985L0.50442 15.2179C1.21626 15.1475 1.73613 15.5964 1.91546 16.0582L-1.81327 17.5061ZM0.892953 19.199C0.971598 19.1914 0.997266 19.1949 0.987059 19.194C0.981042 19.1934 0.96618 19.1916 0.944549 19.1868C0.922628 19.1819 0.897139 19.1746 0.869734 19.1642C0.842298 19.1539 0.817302 19.1422 0.795682 19.1303C0.774294 19.1186 0.759491 19.1086 0.751597 19.1028C0.737053 19.0921 0.752383 19.1007 0.799391 19.152L3.74791 16.449C3.3812 16.049 2.91067 15.6587 2.27978 15.421C1.65317 15.185 1.04409 15.1659 0.509446 15.2174L0.892953 19.199ZM0.799328 19.152C0.983604 19.353 1.08228 19.5193 1.12719 19.6225C1.17477 19.7319 1.13848 19.7123 1.15196 19.5846L5.12986 20.0045C5.27837 18.5975 4.54977 17.3238 3.74797 16.4491L0.799328 19.152ZM1.15197 19.5845C0.993746 21.0826 2.1904 22.7991 4.10501 22.5578L3.6048 18.5892C4.69529 18.4517 5.19312 19.4056 5.12985 20.0046L1.15197 19.5845ZM4.10466 22.5578C3.8602 22.5886 3.74887 22.5104 3.81334 22.5439C3.87084 22.5739 4.00964 22.6654 4.19701 22.8698L7.14565 20.167C6.38546 19.3376 5.12277 18.3981 3.60516 18.5891L4.10466 22.5578ZM4.19694 22.8698C4.1982 22.8711 4.19044 22.8623 4.18217 22.8467C4.17451 22.8323 4.17563 22.8293 4.18092 22.8493C4.18695 22.872 4.19705 22.9194 4.20581 23.0053C4.21473 23.0929 4.22066 23.2033 4.22376 23.3538L8.22291 23.2715C8.20655 22.4769 8.13 21.2409 7.14571 20.167L4.19694 22.8698ZM4.22376 23.3538C4.24626 24.447 4.89363 25.3736 5.82922 25.7815C6.78589 26.1987 7.98521 26.032 8.79783 25.1454L5.84905 22.4427C6.26288 21.9912 6.91851 21.8928 7.42801 22.1149C7.91642 22.3279 8.21313 22.7962 8.22291 23.2715L4.22376 23.3538ZM8.79776 25.1455C10.658 23.1161 11.3307 20.3134 10.8017 17.8374L6.89001 18.673C7.15709 19.9233 6.80733 21.3973 5.84912 22.4426L8.79776 25.1455ZM8.11263 20.1159C9.02349 20.4749 9.99892 20.6608 10.9998 20.6608V16.6608C10.497 16.6608 10.0193 16.5679 9.57912 16.3945L8.11263 20.1159ZM10.9998 20.6608C15.7066 20.6608 19.1053 16.6999 19.1053 12H15.1053C15.1053 14.8233 13.1789 16.6608 10.9998 16.6608V20.6608ZM19.1053 12C19.1053 10.9721 18.9452 9.96664 18.632 9.02104L14.8348 10.2786C15.0099 10.8071 15.1053 11.3872 15.1053 12H19.1053ZM16.2406 11.5881C18.7048 12.2147 21.4068 11.3899 23.285 9.34081L20.3364 6.63794C19.3901 7.67033 18.1743 7.95253 17.2263 7.71149L16.2406 11.5881ZM23.285 9.34081C24.0569 8.49878 24.1413 7.39013 23.8301 6.542C23.5172 5.68912 22.682 4.82056 21.4181 4.78983L21.3208 8.78864C20.6236 8.77169 20.2089 8.28514 20.0749 7.91985C19.9426 7.55931 19.9643 7.04384 20.3364 6.63794L23.285 9.34081ZM9.09756 20.8523C8.85832 20.2305 8.50841 19.6648 8.05702 19.1725L5.10859 21.8756C5.22059 21.9978 5.30466 22.1335 5.36438 22.2887L9.09756 20.8523ZM8.05713 19.1726C7.17061 18.2055 6.04355 17.4431 4.74141 17.222L4.07182 21.1656C4.24391 21.1948 4.622 21.3448 5.10848 21.8755L8.05713 19.1726ZM6.38725 18.9162C6.20599 17.6229 5.5598 16.4369 4.6594 15.4547L1.71076 18.1575C2.18843 18.6786 2.3802 19.1448 2.42597 19.4714L6.38725 18.9162ZM4.6594 15.4547C4.29697 15.0593 3.88289 14.7052 3.40142 14.425L1.38967 17.8823C1.46292 17.9249 1.56987 18.0038 1.71076 18.1575L4.6594 15.4547ZM3.21906 17.9763C4.18088 17.5417 4.8741 17.7568 5.1806 18.0912L8.1293 15.3884C6.25209 13.3404 3.4864 13.4661 1.57204 14.3311L3.21906 17.9763ZM5.18065 18.0912C5.69709 18.6546 5.89063 19.7086 5.41715 20.7278L9.0448 22.4131C10.0801 20.1846 9.91682 17.3384 8.12924 15.3883L5.18065 18.0912ZM9.04079 14.394C8.32398 13.6121 8.00785 12.295 8.3055 11.0496L4.41505 10.1198C3.85721 12.4541 4.34501 15.1909 6.09215 17.0969L9.04079 14.394ZM4.88595 11.9361L10.8227 18.4128L13.7714 15.7099L7.8346 9.23326L4.88595 11.9361ZM11.75 15.1376C10.7894 15.4108 9.72874 15.1445 9.04076 14.394L6.09217 17.0969C7.86814 19.0343 10.5234 19.6451 12.8441 18.9851L11.75 15.1376ZM15.055 15.1216L8.37389 7.83288L5.42524 10.5357L12.1064 17.8245L15.055 15.1216ZM8.64819 10.155C8.87472 9.74697 9.16846 9.42878 9.52114 9.19571L7.3158 5.85857C6.3957 6.46662 5.67119 7.27642 5.15094 8.21358L8.64819 10.155ZM6.94416 8.87858L13.6255 16.1674L16.5741 13.4645L9.89279 6.1757L6.94416 8.87858ZM13.3512 13.8451C13.1251 14.2524 12.8317 14.5708 12.4782 14.8044L14.6832 18.1417C15.6052 17.5325 16.3291 16.722 16.8483 15.7868L13.3512 13.8451ZM17.1135 12.0642L11.1764 5.58733L8.22777 8.2902L14.1648 14.7671L17.1135 12.0642ZM10.2493 8.86244C11.2151 8.58771 12.2739 8.85888 12.9587 9.60598L15.9073 6.90311C14.1405 4.97562 11.4898 4.35082 9.15484 5.01509L10.2493 8.86244ZM12.9587 9.60598C13.6756 10.388 13.9917 11.7052 13.6939 12.9507L17.5843 13.8806C18.1423 11.5463 17.6546 8.80924 15.9073 6.90311L12.9587 9.60598ZM16.8188 5.90875C16.4344 5.48939 16.2283 4.50752 16.6763 3.32523L12.9359 1.90773C12.1953 3.86203 12.0722 6.65021 13.8702 8.61162L16.8188 5.90875ZM13.0087 3.49361C13.2511 3.99024 13.5645 4.43131 13.9289 4.82871L16.8773 2.12559C16.7391 1.97484 16.6565 1.84797 16.6035 1.73935L13.0087 3.49361ZM13.9287 4.82858C14.8205 5.80143 15.9559 6.56417 17.2671 6.78107L17.9199 2.83469C17.7428 2.8054 17.3627 2.65511 16.8774 2.12571L13.9287 4.82858ZM15.6133 5.08831C15.7957 6.37641 16.4402 7.55717 17.3369 8.53531L20.2854 5.83235C19.8103 5.31405 19.6196 4.85109 19.5738 4.52745L15.6133 5.08831ZM17.3368 8.53526C17.785 9.02415 18.3173 9.42343 18.9266 9.70427L20.601 6.0716C20.5033 6.02656 20.3973 5.95438 20.2855 5.83239L17.3368 8.53526ZM18.8024 6.13415C18.0153 6.56562 17.2842 6.41644 16.8188 5.90872L13.8702 8.61165C15.7392 10.6505 18.5384 10.8405 20.7252 9.64172L18.8024 6.13415Z" fill="#006341" mask="url(#path-1-inside-1)"/>
</svg>
