<svg width="32" height="30" viewBox="0 0 32 30" fill="none" xmlns="http://www.w3.org/2000/svg">
<path d="M31.2 26.25H27.2V6.64742C27.2 5.05015 26.1235 3.74995 24.8 3.74995H19.2V7.49996H24V30H31.2C31.642 30 32 29.5805 32 29.0625V27.1875C32 26.6695 31.642 26.25 31.2 26.25ZM15.612 0.0591227L6.012 2.97358C5.2995 3.18979 4.8 3.96675 4.8 4.85855V26.25H0.8C0.358 26.25 0 26.6695 0 27.1875V29.0625C0 29.5805 0.358 30 0.8 30H17.6V1.94409C17.6 0.679632 16.622 -0.247909 15.612 0.0591227V0.0591227ZM13.2 16.875C12.5375 16.875 12 16.0353 12 15C12 13.9646 12.5375 13.125 13.2 13.125C13.8625 13.125 14.4 13.9646 14.4 15C14.4 16.0353 13.8625 16.875 13.2 16.875Z" fill="#006341"/>
</svg>
