<svg width="32" height="30" viewBox="0 0 32 30" fill="none" xmlns="http://www.w3.org/2000/svg">
<path d="M13.6288 7.26394L4.66704 16.7556V26.9999C4.66704 27.2651 4.74897 27.5195 4.89482 27.7071C5.04067 27.8946 5.23849 28 5.44475 28L10.8917 27.9819C11.0973 27.9806 11.2941 27.8746 11.4391 27.6872C11.5841 27.4998 11.6655 27.2461 11.6655 26.9818V20.9992C11.6655 20.734 11.7475 20.4796 11.8933 20.292C12.0392 20.1045 12.237 19.9991 12.4432 19.9991H15.5541C15.7604 19.9991 15.9582 20.1045 16.104 20.292C16.2499 20.4796 16.3318 20.734 16.3318 20.9992V26.9774C16.3315 27.109 16.3514 27.2394 16.3903 27.3611C16.4293 27.4828 16.4865 27.5934 16.5588 27.6866C16.631 27.7798 16.7169 27.8537 16.8114 27.9042C16.9059 27.9547 17.0072 27.9806 17.1096 27.9806L22.5545 28C22.7608 28 22.9586 27.8946 23.1045 27.7071C23.2503 27.5195 23.3323 27.2651 23.3323 26.9999V16.7487L14.3725 7.26394C14.2671 7.15475 14.1359 7.09521 14.0006 7.09521C13.8653 7.09521 13.7341 7.15475 13.6288 7.26394ZM27.7847 13.7153L23.7211 9.40792V0.750084C23.7211 0.551149 23.6597 0.360363 23.5503 0.219695C23.4409 0.0790266 23.2925 0 23.1378 0H20.4158C20.2611 0 20.1128 0.0790266 20.0034 0.219695C19.894 0.360363 19.8325 0.551149 19.8325 0.750084V5.28871L15.4807 0.684451C15.0631 0.242514 14.539 0.000883439 13.9982 0.000883439C13.4573 0.000883439 12.9333 0.242514 12.5157 0.684451L0.211684 13.7153C0.15262 13.7781 0.103754 13.8552 0.0678782 13.9423C0.0320021 14.0293 0.00981906 14.1246 0.00259668 14.2227C-0.0046257 14.3208 0.0032541 14.4198 0.0257858 14.514C0.0483176 14.6082 0.0850596 14.6957 0.133913 14.7716L1.3734 16.7094C1.42212 16.7855 1.48205 16.8486 1.54975 16.895C1.61745 16.9413 1.69159 16.9701 1.76794 16.9795C1.84429 16.989 1.92134 16.979 1.99468 16.9501C2.06802 16.9213 2.13621 16.8741 2.19535 16.8113L13.6288 4.70115C13.7341 4.59197 13.8653 4.53242 14.0006 4.53242C14.1359 4.53242 14.2671 4.59197 14.3725 4.70115L25.8064 16.8113C25.8654 16.8741 25.9335 16.9213 26.0067 16.9503C26.08 16.9793 26.1569 16.9894 26.2332 16.9801C26.3095 16.9708 26.3836 16.9423 26.4513 16.8962C26.5191 16.85 26.579 16.7872 26.6278 16.7112L27.8673 14.7735C27.9161 14.6972 27.9527 14.6092 27.975 14.5146C27.9973 14.42 28.0048 14.3207 27.9971 14.2223C27.9894 14.124 27.9667 14.0286 27.9302 13.9415C27.8938 13.8545 27.8443 13.7776 27.7847 13.7153Z" fill="#006341"/>
</svg>
