<svg width="22" height="24" viewBox="0 0 22 24" fill="none" xmlns="http://www.w3.org/2000/svg">
<path d="M15.4788 4.30279H17.908L16.1236 23.498H6.27711L4.91954 8.89448L4.87998 8.46892L4.45355 8.44013C2.21769 8.2892 0.501953 6.55398 0.501953 4.50671C0.501953 2.36473 2.38218 0.562564 4.76718 0.562564C6.91501 0.562564 8.66052 2.02965 8.97936 3.88581L9.05099 4.30279H9.47407H13.9498H14.3807L14.4459 3.87683L14.9629 0.501953H21.498V0.90979H15.8448H15.4138L15.3486 1.33575L14.9827 3.72484L14.8942 4.30279H15.4788ZM7.93081 4.30279H8.57778L8.41702 3.67611C8.01406 2.10532 6.51375 0.970401 4.76713 0.970401C2.72953 0.970401 1.01169 2.52394 1.01169 4.50671C1.01169 6.30798 2.43328 7.75741 4.21746 8.00493L4.84486 8.09197L4.78623 7.46128L4.4926 4.30279H7.93081ZM6.70802 22.6347L6.75036 23.0902H7.20781H15.1929H15.6504L15.6927 22.6347L16.956 9.04599L17.0199 8.35812L16.346 8.50983C15.8588 8.61949 15.2246 8.71211 14.471 8.71211C14.3791 8.71211 14.2836 8.71027 14.185 8.70722L13.3782 8.68233L13.7127 9.41694L14.0266 10.1064L10.5073 11.5002L9.1134 8.43878L8.98509 8.15698L8.67569 8.14519C7.32724 8.09381 6.39404 8.19199 5.83973 8.28668L5.38141 8.36497L5.42445 8.82793L6.70802 22.6347ZM10.1571 8.26979L9.66645 8.46413L9.88514 8.94447L10.5931 10.4994L10.7909 10.9339L11.2348 10.7581L12.902 10.0978L13.3927 9.90344L13.174 9.4231L12.466 7.86816L12.2682 7.43368L11.8244 7.60947L10.1571 8.26979ZM16.7478 7.97185L17.0652 7.8713L17.096 7.5398L17.308 5.25904L17.359 4.71062H16.8082H5.59245H5.04167L5.09265 5.25904L5.29327 7.41708L5.34267 7.9485L5.87006 7.86663C6.65879 7.74419 8.01051 7.6388 9.98739 7.8243L10.1072 7.83555L10.2191 7.79123L12.5518 6.86736L13.0461 7.95311L13.1636 8.21112L13.4452 8.24372C14.9889 8.42247 16.1589 8.15845 16.7478 7.97185Z" stroke="#006341" stroke-width="1.00391"/>
</svg>
