<svg width="22" height="24" viewBox="0 0 22 24" fill="none" xmlns="http://www.w3.org/2000/svg">
<path d="M14.9099 0L7.34535 0C4.13634 0 0.763693 2.72176 0.135246 6.22191C-0.15038 7.8123 0.018323 9.41938 0.623136 10.8694C1.78794 13.662 2.4637 16.7369 3.0056 19.3999L3.24817 20.5912L4.49871 20.2868L5.24992 24L9.02989 23.0906L8.28091 19.3663L9.5341 19.0613L9.39428 18.3753C9.25239 17.6793 9.41263 16.9515 9.83387 16.3784C10.2577 15.8019 10.8787 15.4712 11.5375 15.4712H14.6671C18.6195 15.4712 22 12.2013 22 7.7356C22 3.47019 18.8194 0 14.9099 0ZM6.23095 22.3237L5.75693 19.9806L7.02268 19.6725L7.49467 22.0196L6.23095 22.3237ZM14.6671 14.0647H11.5375C10.4856 14.0647 9.49801 14.5873 8.82822 15.4984C8.30016 16.2168 8.03193 17.0932 8.05565 17.9801L4.22675 18.9119C3.67681 16.222 2.9858 13.1382 1.79641 10.2868C1.30362 9.10532 1.16663 7.79317 1.40022 6.49228C1.88673 3.78299 4.66479 1.40647 7.3453 1.40647L14.9098 1.40647C18.1085 1.40647 20.7109 4.24572 20.7109 7.7356C20.7109 11.6974 17.638 14.0647 14.6671 14.0647Z" fill="#006341"/>
<path d="M14.91 2.81299L7.34556 2.81299C5.26762 2.81299 3.03697 4.69583 2.6657 6.76307C2.48123 7.78862 2.58371 8.77835 2.97019 9.70461C3.99337 12.1581 4.64609 14.7965 5.04804 16.5676L5.19938 17.2345L6.84177 16.8348L6.94769 16.4341C7.53532 14.211 9.42289 12.6583 11.5379 12.6583L14.667 12.6583C17.2476 12.6583 19.4485 10.5499 19.4221 7.68173C19.3974 4.985 17.3854 2.81299 14.91 2.81299ZM14.667 11.2518L11.5379 11.2518C9.16378 11.2518 7.01567 12.7912 6.03366 15.0971C5.61422 13.3738 5.00773 11.1945 4.14351 9.122C3.87064 8.46813 3.79901 7.7656 3.93067 7.03372C4.17909 5.65073 5.861 4.21946 7.34556 4.21946L14.91 4.21946C16.6696 4.21946 18.1155 5.77896 18.1331 7.69584C18.1524 9.8018 16.5038 11.2518 14.667 11.2518Z" fill="#006341"/>
<path d="M14.9098 5.62585C13.8435 5.62585 12.9761 6.57227 12.9761 7.73556C12.9761 8.89886 13.8435 9.84527 14.9098 9.84527C15.976 9.84527 16.8434 8.89886 16.8434 7.73556C16.8434 6.57227 15.976 5.62585 14.9098 5.62585ZM14.9098 8.4388C14.5543 8.4388 14.2652 8.12333 14.2652 7.73556C14.2652 7.3478 14.5543 7.03233 14.9098 7.03233C15.2652 7.03233 15.5543 7.3478 15.5543 7.73556C15.5543 8.12333 15.2652 8.4388 14.9098 8.4388Z" fill="#006341"/>
</svg>
