<svg width="32" height="30" viewBox="0 0 32 30" fill="none" xmlns="http://www.w3.org/2000/svg">
<path d="M1 5.14286H27C27.5523 5.14286 28 4.63121 28 4V1.14286C28 0.511643 27.5523 0 27 0H1C0.447688 0 0 0.511643 0 1.14286V4C0 4.63121 0.447688 5.14286 1 5.14286ZM1 16.5714H27C27.5523 16.5714 28 16.0598 28 15.4286V12.5714C28 11.9402 27.5523 11.4286 27 11.4286H1C0.447688 11.4286 0 11.9402 0 12.5714V15.4286C0 16.0598 0.447688 16.5714 1 16.5714ZM1 28H27C27.5523 28 28 27.4884 28 26.8571V24C28 23.3688 27.5523 22.8571 27 22.8571H1C0.447688 22.8571 0 23.3688 0 24V26.8571C0 27.4884 0.447688 28 1 28Z" fill="#006341"/>
</svg>
