<svg width="22" height="24" viewBox="0 0 22 24" fill="none" xmlns="http://www.w3.org/2000/svg">
<path d="M17.59 3.26105V3.45712L17.7233 3.60092L21.5 7.67587V23.5H0.5V7.67587L4.27667 3.60092L4.40995 3.45712V3.26105V0.5H17.59V3.26105ZM19.5484 7.53125H20.6935L19.9151 6.69137L17.6748 4.27408L17.3081 3.8784L16.9413 4.27407L14.7009 6.69137L13.9225 7.53125H15.0677H19.5484ZM17.0261 1.40625V0.90625H16.5261H5.47393H4.97393V1.40625V2.8125V3.3125H5.47393H16.5261H17.0261V2.8125V1.40625ZM5.05823 3.71875H4.83991L4.69151 3.87887L2.08487 6.69137L1.30647 7.53125H2.45159H13.0319H13.2502L13.3986 7.37113L16.0052 4.55863L16.7836 3.71875H15.6385H5.05823ZM12.6437 10.3649L13.1161 10.3387V9.86564V8.4375V7.9375H12.6161H1.56398H1.06398V8.4375V14.0376V14.5715L1.59671 14.5365C4.11468 14.3714 5.51051 13.4378 6.89333 12.513L6.90131 12.5077C6.90131 12.5077 6.90131 12.5077 6.90132 12.5077C8.40548 11.5018 9.88182 10.5177 12.6437 10.3649ZM1.53636 14.9476L1.06398 14.9738V15.4469V22.5938V23.0938H1.56398H12.6161H13.1161V22.5938V11.2749V10.741L12.5834 10.776C10.0654 10.9411 8.66958 11.8747 7.28676 12.7995L7.27879 12.8048C7.27878 12.8048 7.27878 12.8048 7.27878 12.8048C5.77462 13.8107 4.29828 14.7948 1.53636 14.9476ZM13.6801 22.5938V23.0938H14.1801H20.436H20.936V22.5938V8.4375V7.9375H20.436H14.1801H13.6801V8.4375V22.5938Z" stroke="#006341"/>
</svg>
