<svg width="22" height="24" viewBox="0 0 22 24" fill="none" xmlns="http://www.w3.org/2000/svg">
<path d="M21.9957 5.91885C21.97 5.66071 21.823 5.43224 21.6032 5.32035L11.2907 0.0703477C11.1064 -0.0234492 10.8935 -0.0234492 10.7092 0.0703477L0.39673 5.32035C0.176988 5.43224 0.0299492 5.66066 0.00421094 5.91885C0.00365234 5.92424 0 5.99605 0 5.99999V18.75C0 19.0567 0.171145 19.3325 0.43218 19.4463L10.7447 23.9463C10.8266 23.9821 10.9133 24 11 24C11.0867 24 11.1734 23.9821 11.2553 23.9463L21.5678 19.4463C21.8289 19.3325 22 19.0567 22 18.75V5.99999C22 5.99605 21.9963 5.92419 21.9957 5.91885ZM11 1.57761L19.5828 5.94702L16.2779 7.38918L7.53358 3.34236L11 1.57761ZM5.85707 4.19587L14.4657 8.17991L11 9.6922L2.41725 5.94702L5.85707 4.19587ZM1.375 7.10774L10.3125 11.0077V22.1422L1.375 18.2422V7.10774ZM11.6875 22.1423V11.0077L20.625 7.10774V18.2422L11.6875 22.1423Z" fill="#006341"/>
</svg>
