<svg width="22" height="24" viewBox="0 0 22 24" fill="none" xmlns="http://www.w3.org/2000/svg">
<mask id="path-1-inside-1" fill="white">
<path d="M21.5914 2.59986C22.1359 2.00593 22.1359 1.03944 21.5914 0.445453C21.0468 -0.148484 20.161 -0.148484 19.6165 0.445453L19.0829 1.02758C18.0728 0.0129958 16.4946 0.0395263 15.5148 1.10839C15.0092 1.66 14.7582 2.38565 14.7612 3.11022C14.6159 3.04971 14.4601 3.01774 14.2995 3.01774C13.9546 3.01774 13.6308 3.16361 13.388 3.4285C13.1453 3.69338 13.0115 4.04653 13.0115 4.42283C13.0115 4.63461 13.0538 4.83898 13.1341 5.02441C11.7573 6.45513 10.5452 7.14413 9.56016 7.70376C8.11433 8.52517 7.03339 9.13964 6.84897 11.3882C6.78147 11.3765 6.71272 11.3703 6.64298 11.3703C6.29799 11.3703 5.97427 11.5161 5.73155 11.781C5.50549 12.0276 5.3741 12.3507 5.35704 12.6979C5.05089 12.7161 4.74956 12.8522 4.5162 13.1068L2.38933 15.427C2.22738 15.6037 2.13818 15.8391 2.13818 16.0898C2.13818 16.3406 2.22738 16.576 2.38937 16.7527L6.64298 21.393C6.80497 21.5697 7.02075 21.667 7.25068 21.667C7.4806 21.667 7.69638 21.5697 7.85837 21.393L9.98519 19.0729C10.2186 18.8183 10.3434 18.4896 10.36 18.1556C10.6783 18.137 10.9745 17.9937 11.2005 17.7471C11.4433 17.4823 11.5771 17.1291 11.5771 16.7528C11.5771 16.6767 11.5714 16.6017 11.5606 16.5281C13.6218 16.3269 14.185 15.1477 14.9381 13.5704C15.4511 12.4958 16.0827 11.1734 17.3944 9.67133C17.5683 9.76086 17.7569 9.80581 17.9455 9.80581C18.2756 9.80581 18.6057 9.66875 18.857 9.39468C19.0998 9.1298 19.2336 8.77665 19.2336 8.40035C19.2336 8.22513 19.2042 8.05517 19.1488 7.8966C19.1528 7.8966 19.1569 7.89692 19.1609 7.89692C19.8211 7.89692 20.4813 7.62281 20.9839 7.07452C21.4691 6.54513 21.7364 5.83889 21.7364 5.08581C21.7364 4.37221 21.496 3.70088 21.058 3.18204L21.5914 2.59986ZM20.9837 1.10834C21.1931 1.3368 21.1931 1.70861 20.9837 1.93702L20.452 2.51704L19.6925 1.6884L20.2241 1.10839C20.4336 0.880066 20.7743 0.879926 20.9837 1.10834ZM9.3775 18.4099L7.25072 20.73L2.99711 16.0898L5.12394 13.7696C5.20768 13.6783 5.31772 13.6326 5.42776 13.6326C5.5378 13.6326 5.64784 13.6783 5.73159 13.7696L9.37754 17.7471C9.54503 17.9298 9.54503 18.2272 9.3775 18.4099ZM10.5928 17.0841C10.5123 17.1719 10.4044 17.2203 10.289 17.2203C10.1736 17.2203 10.0657 17.1719 9.98519 17.0841C9.98511 17.084 9.98507 17.084 9.98498 17.0839L6.33924 13.1067C6.25876 13.0189 6.21446 12.9012 6.21446 12.7753C6.21446 12.6494 6.25876 12.5317 6.33928 12.4439C6.41976 12.3561 6.52765 12.3077 6.64307 12.3077C6.75848 12.3077 6.86641 12.3561 6.94689 12.4439L10.5929 16.4213C10.6734 16.5091 10.7177 16.6268 10.7177 16.7527C10.7176 16.8786 10.6733 16.9963 10.5928 17.0841ZM18.2493 8.7317C18.0818 8.91437 17.8094 8.91436 17.6419 8.73193C17.6418 8.73184 17.6417 8.73174 17.6416 8.7317C17.6415 8.73156 17.6413 8.73142 17.6412 8.73128L17.1858 8.23446C17.018 8.05142 16.746 8.05142 16.5782 8.23441C16.4104 8.41746 16.4104 8.71421 16.5781 8.8973L16.7344 9.06774C15.3658 10.6449 14.7097 12.0189 14.1758 13.1374C13.409 14.7436 13.013 15.5727 11.0727 15.619L7.68233 11.9205C7.72478 9.80384 8.4848 9.37181 9.95714 8.5353C10.9824 7.95284 12.2419 7.23708 13.6877 5.74415L13.8438 5.91454C14.0117 6.09754 14.2837 6.09754 14.4515 5.91454C14.6193 5.7315 14.6193 5.43469 14.4515 5.25161L13.9957 4.75437C13.8282 4.57165 13.8282 4.27424 13.9957 4.09148C14.1632 3.90877 14.4358 3.90872 14.6034 4.09148L18.2493 8.0689C18.3298 8.1567 18.3742 8.2744 18.3742 8.40035C18.3741 8.5262 18.3298 8.64386 18.2493 8.7317ZM20.3761 6.41149C20.0531 6.76384 19.6215 6.95781 19.1608 6.95781C18.7 6.95781 18.2684 6.7638 17.9455 6.41149C17.9454 6.4114 17.9453 6.41131 17.9452 6.41117L16.1226 4.42292C16.1226 4.42288 16.1225 4.42283 16.1225 4.42283C15.4524 3.69179 15.4524 2.50232 16.1225 1.77132C16.7927 1.04023 17.883 1.04028 18.5531 1.77128L20.3761 3.76004C20.6991 4.11234 20.8769 4.58314 20.8769 5.08577C20.8769 5.58839 20.6991 6.05924 20.3761 6.41149Z"/>
</mask>
<path d="M21.5914 2.59986C22.1359 2.00593 22.1359 1.03944 21.5914 0.445453C21.0468 -0.148484 20.161 -0.148484 19.6165 0.445453L19.0829 1.02758C18.0728 0.0129958 16.4946 0.0395263 15.5148 1.10839C15.0092 1.66 14.7582 2.38565 14.7612 3.11022C14.6159 3.04971 14.4601 3.01774 14.2995 3.01774C13.9546 3.01774 13.6308 3.16361 13.388 3.4285C13.1453 3.69338 13.0115 4.04653 13.0115 4.42283C13.0115 4.63461 13.0538 4.83898 13.1341 5.02441C11.7573 6.45513 10.5452 7.14413 9.56016 7.70376C8.11433 8.52517 7.03339 9.13964 6.84897 11.3882C6.78147 11.3765 6.71272 11.3703 6.64298 11.3703C6.29799 11.3703 5.97427 11.5161 5.73155 11.781C5.50549 12.0276 5.3741 12.3507 5.35704 12.6979C5.05089 12.7161 4.74956 12.8522 4.5162 13.1068L2.38933 15.427C2.22738 15.6037 2.13818 15.8391 2.13818 16.0898C2.13818 16.3406 2.22738 16.576 2.38937 16.7527L6.64298 21.393C6.80497 21.5697 7.02075 21.667 7.25068 21.667C7.4806 21.667 7.69638 21.5697 7.85837 21.393L9.98519 19.0729C10.2186 18.8183 10.3434 18.4896 10.36 18.1556C10.6783 18.137 10.9745 17.9937 11.2005 17.7471C11.4433 17.4823 11.5771 17.1291 11.5771 16.7528C11.5771 16.6767 11.5714 16.6017 11.5606 16.5281C13.6218 16.3269 14.185 15.1477 14.9381 13.5704C15.4511 12.4958 16.0827 11.1734 17.3944 9.67133C17.5683 9.76086 17.7569 9.80581 17.9455 9.80581C18.2756 9.80581 18.6057 9.66875 18.857 9.39468C19.0998 9.1298 19.2336 8.77665 19.2336 8.40035C19.2336 8.22513 19.2042 8.05517 19.1488 7.8966C19.1528 7.8966 19.1569 7.89692 19.1609 7.89692C19.8211 7.89692 20.4813 7.62281 20.9839 7.07452C21.4691 6.54513 21.7364 5.83889 21.7364 5.08581C21.7364 4.37221 21.496 3.70088 21.058 3.18204L21.5914 2.59986ZM20.9837 1.10834C21.1931 1.3368 21.1931 1.70861 20.9837 1.93702L20.452 2.51704L19.6925 1.6884L20.2241 1.10839C20.4336 0.880066 20.7743 0.879926 20.9837 1.10834ZM9.3775 18.4099L7.25072 20.73L2.99711 16.0898L5.12394 13.7696C5.20768 13.6783 5.31772 13.6326 5.42776 13.6326C5.5378 13.6326 5.64784 13.6783 5.73159 13.7696L9.37754 17.7471C9.54503 17.9298 9.54503 18.2272 9.3775 18.4099ZM10.5928 17.0841C10.5123 17.1719 10.4044 17.2203 10.289 17.2203C10.1736 17.2203 10.0657 17.1719 9.98519 17.0841C9.98511 17.084 9.98507 17.084 9.98498 17.0839L6.33924 13.1067C6.25876 13.0189 6.21446 12.9012 6.21446 12.7753C6.21446 12.6494 6.25876 12.5317 6.33928 12.4439C6.41976 12.3561 6.52765 12.3077 6.64307 12.3077C6.75848 12.3077 6.86641 12.3561 6.94689 12.4439L10.5929 16.4213C10.6734 16.5091 10.7177 16.6268 10.7177 16.7527C10.7176 16.8786 10.6733 16.9963 10.5928 17.0841ZM18.2493 8.7317C18.0818 8.91437 17.8094 8.91436 17.6419 8.73193C17.6418 8.73184 17.6417 8.73174 17.6416 8.7317C17.6415 8.73156 17.6413 8.73142 17.6412 8.73128L17.1858 8.23446C17.018 8.05142 16.746 8.05142 16.5782 8.23441C16.4104 8.41746 16.4104 8.71421 16.5781 8.8973L16.7344 9.06774C15.3658 10.6449 14.7097 12.0189 14.1758 13.1374C13.409 14.7436 13.013 15.5727 11.0727 15.619L7.68233 11.9205C7.72478 9.80384 8.4848 9.37181 9.95714 8.5353C10.9824 7.95284 12.2419 7.23708 13.6877 5.74415L13.8438 5.91454C14.0117 6.09754 14.2837 6.09754 14.4515 5.91454C14.6193 5.7315 14.6193 5.43469 14.4515 5.25161L13.9957 4.75437C13.8282 4.57165 13.8282 4.27424 13.9957 4.09148C14.1632 3.90877 14.4358 3.90872 14.6034 4.09148L18.2493 8.0689C18.3298 8.1567 18.3742 8.2744 18.3742 8.40035C18.3741 8.5262 18.3298 8.64386 18.2493 8.7317ZM20.3761 6.41149C20.0531 6.76384 19.6215 6.95781 19.1608 6.95781C18.7 6.95781 18.2684 6.7638 17.9455 6.41149C17.9454 6.4114 17.9453 6.41131 17.9452 6.41117L16.1226 4.42292C16.1226 4.42288 16.1225 4.42283 16.1225 4.42283C15.4524 3.69179 15.4524 2.50232 16.1225 1.77132C16.7927 1.04023 17.883 1.04028 18.5531 1.77128L20.3761 3.76004C20.6991 4.11234 20.8769 4.58314 20.8769 5.08577C20.8769 5.58839 20.6991 6.05924 20.3761 6.41149Z" fill="#006341"/>
<path d="M21.5914 2.59986L20.1171 1.24841L20.1168 1.2487L21.5914 2.59986ZM21.5914 0.445453L23.0658 -0.905944L23.0656 -0.906175L21.5914 0.445453ZM19.6165 0.445453L18.1422 -0.906059L18.1422 -0.906002L19.6165 0.445453ZM19.0829 1.02758L17.6655 2.43862L19.1425 3.92228L20.5572 2.37903L19.0829 1.02758ZM14.7612 3.11022L13.9924 4.95654L16.7741 6.11491L16.7612 3.10169L14.7612 3.11022ZM13.388 3.4285L11.9137 2.07704L11.9136 2.07717L13.388 3.4285ZM13.1341 5.02441L14.5752 6.41119L15.4984 5.45182L14.9695 4.22994L13.1341 5.02441ZM9.56016 7.70376L8.57221 5.9648L8.57221 5.9648L9.56016 7.70376ZM6.84897 11.3882L6.50689 13.3587L8.66337 13.7331L8.84228 11.5517L6.84897 11.3882ZM5.73155 11.781L7.20585 13.1325L7.20609 13.1322L5.73155 11.781ZM5.35704 12.6979L5.47564 14.6944L7.26657 14.588L7.35463 12.796L5.35704 12.6979ZM4.5162 13.1068L5.9905 14.4582H5.9905L4.5162 13.1068ZM2.38933 15.427L0.915027 14.0755L0.914849 14.0757L2.38933 15.427ZM2.38937 16.7527L0.91507 18.1042L0.915077 18.1042L2.38937 16.7527ZM6.64298 21.393L8.11746 20.0417L8.11728 20.0415L6.64298 21.393ZM7.85837 21.393L6.38408 20.0415L6.38407 20.0415L7.85837 21.393ZM9.98519 19.0729L11.4595 20.4244L11.4595 20.4243L9.98519 19.0729ZM10.36 18.1556L10.2433 16.159L8.45199 16.2638L8.36253 18.0559L10.36 18.1556ZM11.2005 17.7471L9.72631 16.3955L9.72619 16.3957L11.2005 17.7471ZM11.5606 16.5281L11.3663 14.5375L9.27861 14.7413L9.58158 16.8169L11.5606 16.5281ZM14.9381 13.5704L16.7429 14.4321L16.7429 14.4321L14.9381 13.5704ZM17.3944 9.67133L18.3097 7.89307L16.9177 7.17658L15.8879 8.35579L17.3944 9.67133ZM18.857 9.39468L20.3311 10.7464L20.3315 10.746L18.857 9.39468ZM19.1488 7.8966V5.8966H16.331L17.2608 8.55653L19.1488 7.8966ZM20.9839 7.07452L22.4581 8.42604L22.4583 8.42591L20.9839 7.07452ZM21.058 3.18204L19.5834 1.83088L18.3948 3.128L19.5298 4.47226L21.058 3.18204ZM20.9837 1.93702L19.5094 0.585568L19.5094 0.585568L20.9837 1.93702ZM20.452 2.51704L18.9777 3.86849L20.452 5.47681L21.9263 3.86849L20.452 2.51704ZM19.6925 1.6884L18.2181 0.337008L16.9794 1.68846L18.2182 3.03986L19.6925 1.6884ZM20.2241 1.10839L18.7503 -0.243669L18.7497 -0.243008L20.2241 1.10839ZM7.25072 20.73L5.77642 22.0815L7.25073 23.6898L8.72502 22.0815L7.25072 20.73ZM2.99711 16.0898L1.52281 14.7383L0.28396 16.0898L1.52281 17.4413L2.99711 16.0898ZM5.12394 13.7696L6.59824 15.1211H6.59824L5.12394 13.7696ZM5.73159 13.7696L7.2059 12.4182L7.20589 12.4182L5.73159 13.7696ZM9.37754 17.7471L7.90323 19.0985L7.90324 19.0985L9.37754 17.7471ZM9.98519 17.0841L11.4595 15.7327L9.98519 17.0841ZM9.98498 17.0839L8.51067 18.4353L8.51068 18.4353L9.98498 17.0839ZM6.33924 13.1067L7.81355 11.7553L7.81354 11.7553L6.33924 13.1067ZM6.33928 12.4439L7.81323 13.7958L7.81359 13.7954L6.33928 12.4439ZM6.94689 12.4439L5.47259 13.7954L5.4726 13.7954L6.94689 12.4439ZM10.5929 16.4213L12.0672 15.0698L12.0672 15.0698L10.5929 16.4213ZM10.7177 16.7527L12.7177 16.7541V16.7527H10.7177ZM17.6419 8.73193L16.1676 10.0834L16.1689 10.0849L17.6419 8.73193ZM17.6416 8.7317L16.1673 10.0832L16.392 10.3283L16.6839 10.4875L17.6416 8.7317ZM17.6412 8.73128L16.1668 10.0827L16.1669 10.0827L17.6412 8.73128ZM17.1858 8.23446L18.6602 6.88308L18.6601 6.88301L17.1858 8.23446ZM16.5782 8.23441L15.1042 6.88258L15.1041 6.88277L16.5782 8.23441ZM16.5781 8.8973L15.1037 10.2486L15.1038 10.2488L16.5781 8.8973ZM16.7344 9.06774L18.245 10.3785L19.414 9.03119L18.2087 7.71628L16.7344 9.06774ZM14.1758 13.1374L15.9807 13.999L15.9807 13.999L14.1758 13.1374ZM11.0727 15.619L9.59837 16.9705L10.2122 17.6401L11.1204 17.6184L11.0727 15.619ZM7.68233 11.9205L5.68273 11.8804L5.66667 12.6814L6.20803 13.2719L7.68233 11.9205ZM9.95714 8.5353L8.96922 6.79633L8.96916 6.79636L9.95714 8.5353ZM13.6877 5.74415L15.162 4.3927L13.7276 2.82797L12.2509 4.35281L13.6877 5.74415ZM13.8438 5.91454L12.3695 7.26599L12.3699 7.26637L13.8438 5.91454ZM14.4515 5.91454L15.9253 7.26656L15.9258 7.26599L14.4515 5.91454ZM14.4515 5.25161L15.926 3.90034L15.9258 3.90015L14.4515 5.25161ZM13.9957 4.75437L15.47 3.40291L15.4699 3.40273L13.9957 4.75437ZM13.9957 4.09148L15.47 5.44293L15.4702 5.44275L13.9957 4.09148ZM14.6034 4.09148L16.0777 2.74003L16.0775 2.73984L14.6034 4.09148ZM18.2493 8.0689L16.775 9.42035L16.775 9.42036L18.2493 8.0689ZM18.3742 8.40035L20.3742 8.40103V8.40035H18.3742ZM17.9455 6.41149L19.4199 5.06014L19.4198 5.06004L17.9455 6.41149ZM17.9452 6.41117L19.4195 5.05971L19.4195 5.05971L17.9452 6.41117ZM16.1226 4.42292L14.6483 5.77438V5.77438L16.1226 4.42292ZM16.1225 4.42283L17.6071 3.08271L17.602 3.07702L17.5968 3.07138L16.1225 4.42283ZM16.1225 1.77132L17.5968 3.12282L17.5968 3.12278L16.1225 1.77132ZM18.5531 1.77128L17.0787 3.12268L17.0788 3.12273L18.5531 1.77128ZM20.3761 3.76004L18.9018 5.11149L18.9019 5.11159L20.3761 3.76004ZM23.0657 3.95132C24.3111 2.59271 24.3111 0.452637 23.0658 -0.905944L20.1171 1.79685C20.0215 1.69262 19.9998 1.58722 19.9998 1.52268C19.9998 1.45814 20.0215 1.35268 20.1171 1.24841L23.0657 3.95132ZM23.0656 -0.906175C21.7284 -2.36454 19.4795 -2.36472 18.1422 -0.906059L21.0907 1.79697C20.987 1.91015 20.8111 2 20.6039 2C20.3968 2 20.221 1.91016 20.1173 1.79708L23.0656 -0.906175ZM18.1422 -0.906002L17.6086 -0.323877L20.5572 2.37903L21.0908 1.79691L18.1422 -0.906002ZM20.5002 -0.383464C18.6849 -2.20694 15.7903 -2.15188 14.0405 -0.243066L16.9891 2.45984C17.1129 2.32484 17.2362 2.2882 17.3292 2.28626C17.4234 2.28429 17.544 2.31661 17.6655 2.43862L20.5002 -0.383464ZM14.0405 -0.243066C13.1645 0.712537 12.7562 1.93743 12.7613 3.11876L16.7612 3.10169C16.7601 2.83387 16.8538 2.60746 16.9891 2.45984L14.0405 -0.243066ZM15.5301 1.26391C15.1451 1.10358 14.7282 1.01774 14.2995 1.01774V5.01774C14.192 5.01774 14.0868 4.99584 13.9924 4.95654L15.5301 1.26391ZM14.2995 1.01774C13.3681 1.01774 12.5175 1.41834 11.9137 2.07704L14.8623 4.77995C14.7441 4.90889 14.541 5.01774 14.2995 5.01774V1.01774ZM11.9136 2.07717C11.3157 2.72951 11.0115 3.57203 11.0115 4.42283H15.0115C15.0115 4.52103 14.9748 4.65725 14.8625 4.77982L11.9136 2.07717ZM11.0115 4.42283C11.0115 4.90126 11.1072 5.37663 11.2987 5.81887L14.9695 4.22994C15.0004 4.30132 15.0115 4.36795 15.0115 4.42283H11.0115ZM11.693 3.63763C10.5236 4.85287 9.51912 5.42684 8.57221 5.9648L10.5481 9.44271C11.5713 8.86142 12.9911 8.0574 14.5752 6.41119L11.693 3.63763ZM8.57221 5.9648C7.91453 6.33845 6.96714 6.854 6.23168 7.68776C5.41497 8.61362 4.97526 9.76652 4.85566 11.2247L8.84228 11.5517C8.9071 10.7613 9.10007 10.4827 9.23139 10.3338C9.44396 10.0929 9.75996 9.89048 10.5481 9.44271L8.57221 5.9648ZM7.19105 9.41769C7.01555 9.38723 6.83232 9.37027 6.64298 9.37027V13.3703C6.59312 13.3703 6.54738 13.3658 6.50689 13.3587L7.19105 9.41769ZM6.64298 9.37027C5.71163 9.37027 4.86089 9.77081 4.257 10.4298L7.20609 13.1322C7.08765 13.2615 6.88435 13.3703 6.64298 13.3703V9.37027ZM4.25724 10.4296C3.7005 11.0369 3.39826 11.8099 3.35945 12.5997L7.35463 12.796C7.34993 12.8916 7.31049 13.0183 7.20585 13.1325L4.25724 10.4296ZM5.23843 10.7014C4.41056 10.7506 3.62406 11.1202 3.04189 11.7553L5.9905 14.4582C5.87505 14.5842 5.69123 14.6815 5.47564 14.6944L5.23843 10.7014ZM3.04189 11.7553L0.915027 14.0755L3.86363 16.7784L5.9905 14.4582L3.04189 11.7553ZM0.914849 14.0757C0.39819 14.6395 0.138184 15.3641 0.138184 16.0898H4.13818C4.13818 16.3141 4.05658 16.5679 3.86381 16.7782L0.914849 14.0757ZM0.138184 16.0898C0.138184 16.8157 0.39821 17.5403 0.91507 18.1042L3.86368 15.4013C4.05656 15.6117 4.13818 15.8656 4.13818 16.0898H0.138184ZM0.915077 18.1042L5.16868 22.7444L8.11728 20.0415L3.86367 15.4013L0.915077 18.1042ZM5.1685 22.7442C5.69104 23.3144 6.43356 23.667 7.25068 23.667V19.667C7.60795 19.667 7.9189 19.825 8.11746 20.0417L5.1685 22.7442ZM7.25068 23.667C8.06775 23.667 8.81018 23.3144 9.33267 22.7445L6.38407 20.0415C6.58258 19.825 6.89344 19.667 7.25068 19.667V23.667ZM9.33266 22.7445L11.4595 20.4244L8.5109 17.7214L6.38408 20.0415L9.33266 22.7445ZM11.4595 20.4243C12.035 19.7965 12.3197 19.0128 12.3576 18.2553L8.36253 18.0559C8.367 17.9664 8.40207 17.8401 8.51089 17.7214L11.4595 20.4243ZM10.4768 20.1522C11.3379 20.1018 12.1138 19.7106 12.6748 19.0986L9.72619 16.3957C9.83522 16.2767 10.0186 16.1722 10.2433 16.159L10.4768 20.1522ZM12.6747 19.0987C13.2729 18.4462 13.5771 17.6035 13.5771 16.7528H9.57707C9.57707 16.6547 9.61373 16.5183 9.72631 16.3955L12.6747 19.0987ZM13.5771 16.7528C13.5771 16.5764 13.5638 16.4048 13.5396 16.2392L9.58158 16.8169C9.57889 16.7985 9.57707 16.777 9.57707 16.7528H13.5771ZM11.7549 18.5186C13.2012 18.3774 14.3238 17.852 15.188 16.9447C15.9428 16.1524 16.4024 15.1454 16.7429 14.4321L13.1332 12.7088C12.7207 13.5727 12.5222 13.9439 12.2918 14.1858C12.1709 14.3127 11.9812 14.4775 11.3663 14.5375L11.7549 18.5186ZM16.7429 14.4321C17.2423 13.386 17.7784 12.2722 18.9008 10.9869L15.8879 8.35579C14.387 10.0745 13.6599 11.6056 13.1332 12.7088L16.7429 14.4321ZM16.479 11.4496C16.9354 11.6845 17.4377 11.8058 17.9455 11.8058V7.80581C18.0761 7.80581 18.2012 7.83724 18.3097 7.89307L16.479 11.4496ZM17.9455 11.8058C18.8403 11.8058 19.7038 11.4305 20.3311 10.7464L17.383 8.04297C17.5076 7.90704 17.711 7.80581 17.9455 7.80581V11.8058ZM20.3315 10.746C20.9293 10.0937 21.2336 9.25115 21.2336 8.40035H17.2336C17.2336 8.30215 17.2703 8.16592 17.3826 8.04336L20.3315 10.746ZM21.2336 8.40035C21.2336 8.00133 21.1666 7.60821 21.0368 7.23666L17.2608 8.55653C17.2418 8.50212 17.2336 8.44893 17.2336 8.40035H21.2336ZM19.1488 9.8966C19.1233 9.8966 19.1028 9.89608 19.0909 9.89572C19.0848 9.89553 19.0799 9.89535 19.0772 9.89525C19.0747 9.89516 19.0727 9.89507 19.0736 9.89511C19.0737 9.89511 19.0767 9.89524 19.0802 9.89537C19.0839 9.89551 19.0898 9.89573 19.0969 9.89594C19.1109 9.89637 19.1334 9.89692 19.1609 9.89692V5.89692C19.1864 5.89692 19.2069 5.89744 19.2188 5.8978C19.2249 5.89799 19.2298 5.89817 19.2325 5.89827C19.235 5.89836 19.237 5.89845 19.2361 5.89841C19.236 5.89841 19.2329 5.89828 19.2295 5.89815C19.2257 5.89801 19.2199 5.89779 19.2127 5.89758C19.1988 5.89715 19.1763 5.8966 19.1488 5.8966V9.8966ZM19.1609 9.89692C20.3858 9.89692 21.5795 9.38447 22.4581 8.42604L19.5097 5.72301C19.383 5.86115 19.2564 5.89692 19.1609 5.89692V9.89692ZM22.4583 8.42591C23.2992 7.50847 23.7364 6.31258 23.7364 5.08581H19.7364C19.7364 5.36519 19.6391 5.58179 19.5095 5.72313L22.4583 8.42591ZM23.7364 5.08581C23.7364 3.9225 23.3432 2.78842 22.5861 1.89181L19.5298 4.47226C19.6489 4.61334 19.7364 4.82191 19.7364 5.08581H23.7364ZM22.5326 4.53319L23.066 3.95102L20.1168 1.2487L19.5834 1.83088L22.5326 4.53319ZM19.5093 2.45964C19.018 1.92359 19.0178 1.12187 19.5094 0.585568L22.458 3.28848C23.3684 2.29534 23.3682 0.750022 22.4582 -0.242962L19.5093 2.45964ZM19.5094 0.585568L18.9777 1.16558L21.9263 3.86849L22.458 3.28848L19.5094 0.585568ZM21.9263 1.16558L21.1668 0.336949L18.2182 3.03986L18.9777 3.86849L21.9263 1.16558ZM21.1668 3.0398L21.6985 2.45978L18.7497 -0.243008L18.2181 0.337008L21.1668 3.0398ZM21.6978 2.46045C21.1154 3.09529 20.0935 3.09682 19.5096 2.45995L22.4579 -0.243264C21.4551 -1.33697 19.7517 -1.33515 18.7503 -0.243669L21.6978 2.46045ZM7.9032 17.0585L5.77641 19.3786L8.72502 22.0815L10.8518 19.7614L7.9032 17.0585ZM8.72501 19.3786L4.47141 14.7383L1.52281 17.4413L5.77642 22.0815L8.72501 19.3786ZM4.47142 17.4413L6.59824 15.1211L3.64963 12.4182L1.52281 14.7383L4.47142 17.4413ZM6.59824 15.1211C6.30597 15.4399 5.88246 15.6326 5.42776 15.6326V11.6326C4.75298 11.6326 4.1094 11.9166 3.64963 12.4182L6.59824 15.1211ZM5.42776 15.6326C4.97306 15.6326 4.54956 15.4399 4.25728 15.1211L7.20589 12.4182C6.74613 11.9166 6.10254 11.6326 5.42776 11.6326V15.6326ZM4.25728 15.1211L7.90323 19.0985L10.8519 16.3956L7.2059 12.4182L4.25728 15.1211ZM7.90324 19.0985C7.36978 18.5166 7.36976 17.6402 7.90337 17.0583L10.8516 19.7615C11.7203 18.8142 11.7203 17.343 10.8518 16.3956L7.90324 19.0985ZM9.1185 15.7327C9.40297 15.4223 9.82362 15.2203 10.289 15.2203V19.2203C10.9852 19.2203 11.6217 18.9215 12.0671 18.4356L9.1185 15.7327ZM10.289 15.2203C10.7542 15.2203 11.1749 15.4222 11.4595 15.7327L8.51089 18.4356C8.95647 18.9217 9.59301 19.2203 10.289 19.2203V15.2203ZM11.4595 15.7327L11.4593 15.7324L8.51068 18.4353L8.51089 18.4356L11.4595 15.7327ZM11.4593 15.7324L7.81355 11.7553L4.86493 14.4582L8.51067 18.4353L11.4593 15.7324ZM7.81354 11.7553C8.09197 12.059 8.21446 12.4325 8.21446 12.7753H4.21446C4.21446 13.37 4.42555 13.9788 4.86494 14.4582L7.81354 11.7553ZM8.21446 12.7753C8.21446 13.1182 8.09193 13.4919 7.81323 13.7958L4.86534 11.0921C4.42559 11.5715 4.21446 12.1806 4.21446 12.7753H8.21446ZM7.81359 13.7954C7.52912 14.1057 7.10847 14.3077 6.64307 14.3077V10.3077C5.94684 10.3077 5.3104 10.6065 4.86498 11.0925L7.81359 13.7954ZM6.64307 14.3077C6.17788 14.3077 5.75721 14.1059 5.47259 13.7954L8.4212 11.0925C7.97561 10.6064 7.33907 10.3077 6.64307 10.3077V14.3077ZM5.4726 13.7954L9.11859 17.7728L12.0672 15.0698L8.42119 11.0924L5.4726 13.7954ZM9.11859 17.7727C8.84034 17.4692 8.71771 17.0959 8.71771 16.7527H12.7177C12.7177 16.1578 12.5064 15.549 12.0672 15.0698L9.11859 17.7727ZM8.71771 16.7514C8.71795 16.4091 8.84031 16.0361 9.1185 15.7327L12.0671 18.4356C12.5063 17.9565 12.7173 17.3481 12.7177 16.7541L8.71771 16.7514ZM16.7752 7.38006C17.4004 6.69824 18.4899 6.69869 19.1148 7.37897L16.1689 10.0849C17.129 11.13 18.7633 11.1305 19.7235 10.0833L16.7752 7.38006ZM19.1162 7.38048C19.1723 7.44169 19.2123 7.49324 19.2297 7.51585C19.237 7.52539 19.2445 7.53541 19.241 7.53086C19.2407 7.53043 19.2306 7.51693 19.2177 7.50044C19.1773 7.44865 18.9713 7.17877 18.5993 6.9759L16.6839 10.4875C16.3121 10.2847 16.1062 10.0149 16.0658 9.96316C16.0529 9.94668 16.0428 9.93321 16.0425 9.9328C16.0391 9.92827 16.0466 9.93831 16.0539 9.94787C16.0713 9.97054 16.1114 10.0221 16.1676 10.0834L19.1162 7.38048ZM19.1159 7.38024C19.0973 7.35991 19.0807 7.34263 19.0672 7.3289C19.0537 7.31516 19.042 7.30373 19.0333 7.29527C19.0246 7.28684 19.0175 7.28013 19.0133 7.2762C19.0112 7.27417 19.0094 7.27253 19.0084 7.27155C19.0078 7.27104 19.0074 7.27063 19.0071 7.27039C19.007 7.27026 19.0069 7.27015 19.0068 7.27009C19.0068 7.27006 19.0068 7.27003 19.0068 7.27002C19.0067 7.27001 19.0067 7.27 19.0067 7.27C19.0067 7.26999 19.0067 7.26999 19.0067 7.26999C19.0061 7.26945 19.0094 7.27251 19.0132 7.27609C19.0174 7.27999 19.0244 7.28666 19.0331 7.29506C19.0418 7.30348 19.0534 7.31488 19.0669 7.32859C19.0803 7.34228 19.0969 7.35952 19.1155 7.37982L16.1669 10.0827C16.1855 10.1031 16.2022 10.1203 16.2157 10.1341C16.2292 10.1478 16.2408 10.1592 16.2496 10.1677C16.2583 10.1761 16.2653 10.1828 16.2695 10.1868C16.2717 10.1888 16.2734 10.1904 16.2745 10.1914C16.275 10.1919 16.2754 10.1923 16.2757 10.1926C16.2758 10.1927 16.276 10.1928 16.276 10.1929C16.2761 10.1929 16.2761 10.1929 16.2761 10.193C16.2761 10.193 16.2761 10.193 16.2761 10.193C16.2761 10.193 16.2761 10.193 16.2761 10.193C16.2767 10.1935 16.2734 10.1905 16.2696 10.1869C16.2655 10.183 16.2584 10.1763 16.2498 10.1679C16.2411 10.1595 16.2295 10.1481 16.216 10.1344C16.2025 10.1207 16.1859 10.1034 16.1673 10.0832L19.1159 7.38024ZM19.1156 7.37989L18.6602 6.88308L15.7115 9.58585L16.1668 10.0827L19.1156 7.37989ZM18.6601 6.88301C17.6996 5.83517 16.0646 5.83543 15.1042 6.88258L18.0521 9.58624C17.4274 10.2674 16.3365 10.2677 15.7115 9.58592L18.6601 6.88301ZM15.1041 6.88277C14.235 7.83059 14.2352 9.30097 15.1037 10.2486L18.0526 7.54604C18.5855 8.12746 18.5857 9.00432 18.0523 9.58606L15.1041 6.88277ZM15.1038 10.2488L15.2601 10.4192L18.2087 7.71628L18.0525 7.54585L15.1038 10.2488ZM15.2238 7.75699C13.6694 9.54838 12.919 11.1276 12.3709 12.2758L15.9807 13.999C16.5004 12.9102 17.0623 11.7415 18.245 10.3785L15.2238 7.75699ZM12.3709 12.2757C12.17 12.6967 12.0362 12.9741 11.9072 13.198C11.7844 13.4112 11.715 13.4865 11.6897 13.5104C11.682 13.5176 11.6767 13.5263 11.6251 13.5438C11.5518 13.5687 11.3774 13.6112 11.0249 13.6196L11.1204 17.6184C12.3893 17.5881 13.5214 17.284 14.4389 16.4159C15.2043 15.6917 15.6515 14.6884 15.9807 13.999L12.3709 12.2757ZM12.547 14.2675L9.15663 10.569L6.20803 13.2719L9.59837 16.9705L12.547 14.2675ZM9.68193 11.9606C9.69034 11.5413 9.73336 11.2999 9.77186 11.165C9.80493 11.0491 9.83446 11.0108 9.84905 10.9925C9.87341 10.9618 9.93689 10.8928 10.1173 10.7692C10.3129 10.635 10.5572 10.4946 10.9451 10.2742L8.96916 6.79636C8.33262 7.15801 7.38708 7.66163 6.71801 8.50319C5.95897 9.45791 5.70853 10.594 5.68273 11.8804L9.68193 11.9606ZM10.9451 10.2743C12.0093 9.66966 13.4734 8.84034 15.1244 7.1355L12.2509 4.35281C11.0104 5.63382 9.95547 6.23603 8.96922 6.79633L10.9451 10.2743ZM12.2133 7.0956L12.3695 7.26599L15.3181 4.56309L15.162 4.3927L12.2133 7.0956ZM12.3699 7.26637C13.3304 8.3137 14.965 8.31342 15.9253 7.26656L12.9777 4.56252C13.6024 3.88165 14.6929 3.88137 15.3178 4.56271L12.3699 7.26637ZM15.9258 7.26599C16.7946 6.31821 16.7944 4.84792 15.926 3.90034L12.9771 6.60287C12.4442 6.02147 12.444 5.14479 12.9772 4.56309L15.9258 7.26599ZM15.9258 3.90015L15.47 3.40291L12.5214 6.10582L12.9772 6.60306L15.9258 3.90015ZM15.4699 3.40273C16.0036 3.98481 16.0033 4.86115 15.47 5.44293L12.5214 2.74003C11.6531 3.68733 11.6528 5.1585 12.5216 6.10601L15.4699 3.40273ZM15.4702 5.44275C14.8449 6.12508 13.7543 6.12477 13.1293 5.44312L16.0775 2.73984C15.1174 1.69267 13.4815 1.69245 12.5213 2.74021L15.4702 5.44275ZM13.1291 5.44293L16.775 9.42035L19.7236 6.71746L16.0777 2.74003L13.1291 5.44293ZM16.775 9.42036C16.4969 9.11689 16.3742 8.74354 16.3742 8.40035H20.3742C20.3742 7.80525 20.1628 7.19651 19.7236 6.71745L16.775 9.42036ZM16.3742 8.39966C16.3743 8.05639 16.4971 7.68378 16.7743 7.38103L19.7244 10.0824C20.1625 9.60393 20.374 8.99602 20.3742 8.40103L16.3742 8.39966ZM18.9017 5.06014C18.9176 5.04276 18.9496 5.01532 19.0001 4.9926C19.0512 4.96963 19.1075 4.95781 19.1608 4.95781V8.95781C20.2052 8.95781 21.1646 8.51121 21.8505 7.76285L18.9017 5.06014ZM19.1608 4.95781C19.2141 4.95781 19.2704 4.96962 19.3215 4.9926C19.372 5.01531 19.404 5.04274 19.4199 5.06014L16.4711 7.76285C17.157 8.51113 18.1163 8.95781 19.1608 8.95781V4.95781ZM19.4198 5.06004C19.3923 5.03007 19.368 5.0053 19.3489 4.98655C19.3299 4.96783 19.3139 4.95279 19.303 4.94273C19.2923 4.93281 19.2837 4.92516 19.2803 4.92212C19.2785 4.9205 19.2771 4.91921 19.2769 4.91908C19.2763 4.91853 19.2774 4.91951 19.2784 4.92034C19.2805 4.92227 19.2865 4.92765 19.2941 4.9346C19.302 4.94175 19.3125 4.95149 19.3248 4.96322C19.3496 4.98679 19.3825 5.01933 19.4195 5.05971L16.4709 7.76262C16.5079 7.80308 16.5409 7.83568 16.5657 7.85931C16.5781 7.87107 16.5886 7.88084 16.5965 7.88802C16.6041 7.895 16.6102 7.9004 16.6124 7.90236C16.6133 7.9032 16.6144 7.90419 16.6138 7.90366C16.6137 7.90354 16.6122 7.90226 16.6104 7.90065C16.6071 7.89764 16.5986 7.89001 16.5879 7.88011C16.577 7.87009 16.561 7.85507 16.542 7.83637C16.523 7.81764 16.4987 7.7929 16.4712 7.76295L19.4198 5.06004ZM19.4195 5.05971L17.5969 3.07147L14.6483 5.77438L16.4709 7.76262L19.4195 5.05971ZM17.5969 3.07147C17.6 3.07484 17.6024 3.07753 17.6037 3.07893C17.6045 3.07975 17.6051 3.08048 17.6057 3.08108C17.6059 3.08139 17.6062 3.08168 17.6064 3.08195C17.6066 3.08209 17.6067 3.08222 17.6068 3.08234C17.6069 3.08241 17.6069 3.08247 17.607 3.08253C17.607 3.08256 17.607 3.08259 17.607 3.08262C17.6071 3.08264 17.6071 3.08265 17.6071 3.08267C17.6071 3.08267 17.6071 3.08268 17.6071 3.08269C17.6071 3.08269 17.6071 3.0827 17.6071 3.0827C17.6071 3.08271 17.6071 3.08271 16.1225 4.42283C14.6379 5.76295 14.6379 5.76295 14.6379 5.76296C14.6379 5.76296 14.6379 5.76297 14.6379 5.76297C14.6379 5.76298 14.6379 5.76299 14.6379 5.76299C14.638 5.76301 14.638 5.76302 14.638 5.76304C14.638 5.76307 14.638 5.7631 14.6381 5.76313C14.6381 5.76319 14.6382 5.76326 14.6382 5.76332C14.6383 5.76345 14.6385 5.76358 14.6386 5.76371C14.6388 5.76399 14.6391 5.76428 14.6394 5.76459C14.6399 5.76521 14.6406 5.76595 14.6414 5.76679C14.6427 5.76823 14.6452 5.77096 14.6483 5.77438L17.5969 3.07147ZM17.5968 3.07138C17.6128 3.08883 17.6191 3.103 17.6206 3.10713C17.6217 3.11005 17.6199 3.10608 17.6199 3.09706C17.6199 3.08804 17.6217 3.08408 17.6206 3.08702C17.6191 3.09116 17.6128 3.10535 17.5968 3.12282L14.6483 0.419822C13.2771 1.9155 13.2772 4.27862 14.6482 5.77428L17.5968 3.07138ZM17.5968 3.12278C17.5559 3.16741 17.4625 3.22302 17.3378 3.22302C17.2132 3.22302 17.1197 3.16741 17.0787 3.12268L20.0274 0.419869C18.5647 -1.17595 16.111 -1.17592 14.6482 0.419869L17.5968 3.12278ZM17.0788 3.12273L18.9018 5.11149L21.8504 2.40858L20.0274 0.419822L17.0788 3.12273ZM18.9019 5.11159C18.8863 5.09456 18.8792 5.0799 18.8767 5.07324C18.8742 5.06685 18.8769 5.07036 18.8769 5.08577H22.8769C22.8769 4.11125 22.5303 3.15017 21.8503 2.40848L18.9019 5.11159ZM18.8769 5.08577C18.8769 5.10112 18.8743 5.10462 18.8767 5.09824C18.8792 5.0916 18.8863 5.07692 18.902 5.05984L21.8502 7.76314C22.5302 7.02149 22.8769 6.06032 22.8769 5.08577H18.8769Z" fill="#006341" mask="url(#path-1-inside-1)"/>
<path d="M0.429905 23.0625H0.429862H0.429561C0.192243 23.0625 0 23.2724 0 23.5312C0 23.79 0.192381 23.9998 0.429561 24C0.429661 24 0.429761 24 0.429862 24C0.429876 24 0.42989 24 0.429905 24C0.667203 24 0.859552 23.7901 0.859552 23.5312C0.859552 23.2724 0.667222 23.0625 0.429905 23.0625Z" fill="#006341" stroke="#006341" stroke-width="2"/>
<path d="M3.00803 23.0625H3.00799H3.00769C2.77037 23.0625 2.57812 23.2724 2.57812 23.5312C2.57812 23.79 2.77051 23.9998 3.00769 24C3.00779 24 3.00789 24 3.00799 24C3.008 24 3.00802 24 3.00803 24C3.24533 24 3.43768 23.7901 3.43768 23.5312C3.43768 23.2724 3.24535 23.0625 3.00803 23.0625Z" fill="#006341" stroke="#006341" stroke-width="2"/>
<path d="M0.429905 20.25H0.429862H0.429561C0.192243 20.25 0 20.4599 0 20.7187C0 20.9775 0.192381 21.1873 0.429561 21.1875C0.429661 21.1875 0.429761 21.1875 0.429862 21.1875C0.429876 21.1875 0.42989 21.1875 0.429905 21.1875C0.667203 21.1875 0.859552 20.9776 0.859552 20.7187C0.859552 20.4599 0.667222 20.25 0.429905 20.25Z" fill="#006341" stroke="#006341" stroke-width="2"/>
<path d="M3.00803 20.25H3.00799H3.00769C2.77037 20.25 2.57812 20.4599 2.57812 20.7187C2.57812 20.9775 2.77051 21.1873 3.00769 21.1875C3.00779 21.1875 3.00789 21.1875 3.00799 21.1875C3.008 21.1875 3.00802 21.1875 3.00803 21.1875C3.24533 21.1875 3.43768 20.9776 3.43768 20.7187C3.43768 20.4599 3.24535 20.25 3.00803 20.25Z" fill="#006341" stroke="#006341" stroke-width="2"/>
</svg>
