<svg width="22" height="24" viewBox="0 0 24 24" fill="none" xmlns="http://www.w3.org/2000/svg">
<path d="M22.9753 8.42355C22.9753 8.38137 22.9753 8.33919 22.9506 8.29701V8.25483L20.7258 1.37961C20.7011 1.33743 20.6764 1.25308 20.6517 1.2109C20.627 1.16872 20.5775 1.12654 20.5528 1.08436C20.5528 1.08436 20.5281 1.08436 20.5281 1.04218C20.4787 1 20.4292 1 20.3798 1H3.62022C3.57079 1 3.52135 1 3.47191 1.04218C3.47191 1.04218 3.44719 1.04218 3.44719 1.08436C3.39775 1.12654 3.37303 1.16872 3.34831 1.2109C3.3236 1.25308 3.29888 1.29526 3.27416 1.37961L1.04944 8.25483V8.29701C1.04944 8.33919 1.02472 8.38137 1.02472 8.42355C1.02472 8.46573 1 8.50791 1 8.55009V8.59227V24.283C1 24.7047 1.17303 25 1.39551 25H22.6045C22.827 25 23 24.7047 23 24.3251V8.59227V8.55009C23 8.50791 23 8.46573 22.9753 8.42355ZM20.7753 4.41652L21.9124 7.95958H20.7753V4.41652ZM4.01573 2.4341H19.9595V7.9174H4.01573V2.4341ZM14.373 9.30931V13.2742H9.65169V9.30931H14.373ZM3.22472 4.37434V7.9174H2.08764L3.22472 4.37434ZM1.79101 23.6081V9.26714H8.83596V13.9069C8.83596 14.2865 9.00899 14.5817 9.23146 14.5817H14.7438C14.9663 14.5817 15.1393 14.2865 15.1393 13.9069V9.26714H22.1843V23.6081H1.79101Z" fill="#006341" stroke="#006341"/>
</svg>
