<svg width="32" height="30" viewBox="0 0 32 30" fill="none" xmlns="http://www.w3.org/2000/svg">
<path d="M29.1875 0H22.5625V7.03125H32V2.63672C32 1.18277 30.7384 0 29.1875 0Z" fill="#006341"/>
<path d="M2.8125 0C1.26163 0 0 1.18277 0 2.63672V7.03125H20.6875V0H2.8125ZM6.625 5.27344H4.75C4.23181 5.27344 3.8125 4.88033 3.8125 4.39453C3.8125 3.90873 4.23181 3.51562 4.75 3.51562H6.625C7.14319 3.51562 7.5625 3.90873 7.5625 4.39453C7.5625 4.88033 7.14319 5.27344 6.625 5.27344ZM12.25 5.27344H10.375C9.85681 5.27344 9.4375 4.88033 9.4375 4.39453C9.4375 3.90873 9.85681 3.51562 10.375 3.51562H12.25C12.7682 3.51562 13.1875 3.90873 13.1875 4.39453C13.1875 4.88033 12.7682 5.27344 12.25 5.27344ZM17.875 5.27344H16C15.4818 5.27344 15.0625 4.88033 15.0625 4.39453C15.0625 3.90873 15.4818 3.51562 16 3.51562H17.875C18.3932 3.51562 18.8125 3.90873 18.8125 4.39453C18.8125 4.88033 18.3932 5.27344 17.875 5.27344Z" fill="#006341"/>
<path d="M0 8.78906V27.3633C0 28.8172 1.26163 30 2.8125 30H29.1875C30.7384 30 32 28.8172 32 27.3633V8.78906H0ZM25.375 14.0625H24.1753L20.639 24.0671C20.5117 24.4259 20.1538 24.668 19.75 24.668C19.3462 24.668 18.9883 24.4259 18.861 24.0671L16 15.9628L13.139 24.0671C12.8845 24.7847 11.6156 24.7847 11.3611 24.0671L7.82469 14.0625H6.625C6.10681 14.0625 5.6875 13.6694 5.6875 13.1836C5.6875 12.6978 6.10681 12.3047 6.625 12.3047H10.375C10.8932 12.3047 11.3125 12.6978 11.3125 13.1836C11.3125 13.6694 10.8932 14.0625 10.375 14.0625H9.80037L12.25 21.0098L14.6996 14.0625H14.125C13.6068 14.0625 13.1875 13.6694 13.1875 13.1836C13.1875 12.6978 13.6068 12.3047 14.125 12.3047H17.875C18.3932 12.3047 18.8125 12.6978 18.8125 13.1836C18.8125 13.6694 18.3932 14.0625 17.875 14.0625H17.3004L19.75 21.0098L22.1996 14.0625H21.625C21.1068 14.0625 20.6875 13.6694 20.6875 13.1836C20.6875 12.6978 21.1068 12.3047 21.625 12.3047H25.375C25.8932 12.3047 26.3125 12.6978 26.3125 13.1836C26.3125 13.6694 25.8932 14.0625 25.375 14.0625Z" fill="#006341"/>
</svg>
