<svg id="Capa_1" enable-background="new 0 0 512.004 512.004" height="512" viewBox="0 0 512.004 512.004" width="512" xmlns="http://www.w3.org/2000/svg"><g><path d="m432.004 385.004h-17v-129c0-8.284-6.716-15-15-15h-33v-113c0-8.284-6.716-15-15-15h-128c-8.284 0-15 6.716-15 15v257h-2.315c-11.547-15.044-28.371-25.825-47.685-29.553v-323.447c0-6.801-4.576-12.751-11.149-14.497l-64-17c-8.008-2.128-16.222 2.639-18.348 10.646-2.127 8.007 2.64 16.222 10.646 18.348l52.851 14.039v311.91c-36.41 7.029-64 39.122-64 77.553 0 43.561 35.439 79 79 79 26.408 0 49.813-13.038 64.165-33h152.835v17c0 8.284 6.716 15 15 15s15-6.716 15-15v-17h41c8.284 0 15-6.716 15-15v-64c0-8.283-6.716-14.999-15-14.999zm-193-242h34v17c0 8.284 6.716 15 15 15s15-6.716 15-15v-17h34v98h-98zm0 128h58v17c0 8.284 6.716 15 15 15s15-6.716 15-15v-17h58v114h-146zm-95 211c-27.019 0-49-21.981-49-49s21.981-49 49-49 49 21.981 49 49-21.982 49-49 49zm273-33h-195.631c2.304-11.159 2.181-22.703-.463-34h196.094z"/><path d="m158.714 429.074c-1.835-8.798-10.585-13.949-19.07-11.42-8.606 2.805-12.201 11.29-9.99 18.71 2.801 8.595 11.279 12.204 18.71 9.99 7.871-2.566 11.719-9.967 10.35-17.28z"/></g></svg>