<svg id="Layer_3" enable-background="new 0 0 64 64" height="512" viewBox="0 0 64 64" width="512" xmlns="http://www.w3.org/2000/svg"><g><path d="m32 11c4.89 0 13.093-.39 13.093-3s-8.203-3-13.093-3-13.093.39-13.093 3 8.203 3 13.093 3zm0-4c5.308 0 8.797.535 10.353 1-1.556.465-5.045 1-10.353 1s-8.797-.535-10.353-1c1.556-.465 5.045-1 10.353-1z"/><path d="m60.042 34.668c1.482-1.471 1.243-4.229-.691-7.975-1.673-3.24-4.475-6.932-7.906-10.442.456-2.702.703-5.457.703-8.251 0-4.547-10.38-7-20.147-7s-20.148 2.453-20.148 7c0 8.421 2.123 16.515 6.102 23.695-.623 3.134-.947 6.339-.947 9.536v.385c0 .507.145 1 .388 1.44l-4.703 4.668c-.985.977-2.354 1.417-3.618 1.138-1.253-.266-2.579-.044-3.64.607-1.347.827-2.222 2.18-2.4 3.712-.178 1.528.348 3.028 1.443 4.115.604.601 1.36 1.037 2.182 1.262.408.112.707.407.818.809.229.82.67 1.571 1.275 2.172.953.945 2.221 1.463 3.547 1.463.198 0 .397-.012.597-.035 1.536-.179 2.892-1.047 3.723-2.38.658-1.056.882-2.378.604-3.674-.27-1.201.173-2.552 1.154-3.525l4.71-4.674c.443.245.937.388 1.457.388h.388c1.008 0 2.028-.042 3.046-.103v1.474c0 1.377-.651 2.643-1.741 3.33-1.076.692-1.858 1.783-2.146 2.992-.362 1.521-.023 3.086.929 4.292.958 1.216 2.401 1.913 3.956 1.913.854 0 1.699-.221 2.441-.639.371-.209.795-.208 1.164-.001.743.419 1.587.64 2.442.64 1.555 0 2.998-.697 3.958-1.914.953-1.206 1.292-2.771.929-4.292-.288-1.209-1.07-2.3-2.188-3.019-1.048-.661-1.699-1.927-1.699-3.304v-2.624c9.109-2.071 17.4-6.612 24.018-13.179zm-31.238 7.332c-.269 0-.531-.107-.722-.297l-.273-.271c-8.22-8.157-13.053-18.77-13.832-30.169 3.535 2.445 10.938 3.737 18.023 3.737s14.488-1.292 18.023-3.736c-.779 11.398-5.612 22.012-13.83 30.168l-.276.272c-.189.189-.452.296-.721.296h-.173-6.047zm20.923-18.768c1.848 2.116 2.899 3.647 3.388 4.55-.776-.409-2.069-1.253-3.974-2.84.209-.565.4-1.137.586-1.71zm-13.704 20.64c.485-.138.934-.383 1.301-.747l.276-.272c3.696-3.668 6.726-7.817 9.055-12.298 3.194 2.4 6.744 4.437 9.55 4.938-5.789 5.001-12.69 8.526-20.182 10.304zm21.55-16.261c1.684 3.26 1.651 5.05 1.059 5.637-1.116 1.11-5.343-.131-11.07-4.519.282-.604.558-1.211.816-1.825 3.197 2.599 4.818 3.241 5.693 3.241.554 0 .811-.255.983-.426.435-.432 1.72-1.743-4.653-8.734.211-.772.403-1.55.576-2.334 2.855 3.059 5.168 6.194 6.596 8.96zm-25.573-24.611c11.244 0 18.147 2.912 18.147 5s-6.903 5-18.147 5-18.147-2.912-18.147-5 6.903-5 18.147-5zm-15.033 48.967c-1.466 1.454-2.116 3.517-1.69 5.413.16.746.03 1.528-.356 2.148v.001c-.514.825-1.315 1.34-2.256 1.45-.93.104-1.843-.205-2.504-.861-.365-.362-.619-.796-.757-1.289-.3-1.078-1.128-1.9-2.215-2.2-.499-.137-.938-.39-1.303-.753-.656-.651-.972-1.549-.865-2.464.108-.933.627-1.728 1.46-2.238.449-.275.981-.42 1.536-.42.223 0 .45.023.676.071 1.873.415 3.946-.23 5.409-1.682l4.619-4.584 2.856 2.834zm7.964-4.866h-.388c-.269 0-.531-.107-.72-.296l-4.093-4.062-.305-.303-.122-.121c-.19-.188-.295-.438-.295-.704v-.385c0-2.309.178-4.623.518-6.909 1.95 3.05 4.24 5.916 6.877 8.532l.273.271c.368.364.817.61 1.302.748v3.122c-1.019.064-2.039.107-3.047.107zm11.752 8.382c.646.416 1.114 1.062 1.283 1.773.223.937.026 1.856-.553 2.589-.899 1.139-2.583 1.484-3.851.771-.489-.274-1.025-.412-1.562-.412-.536 0-1.073.138-1.562.413-1.266.711-2.951.366-3.851-.772-.58-.733-.776-1.652-.553-2.589.169-.711.637-1.357 1.31-1.79 1.624-1.023 2.633-2.938 2.633-4.995v-6.471h4.047v6.472c-.001 2.057 1.008 3.971 2.659 5.011z"/><path d="m17.888 20.238c1.522 6.199 4.729 11.86 9.275 16.371l1.409-1.42c-4.285-4.251-7.308-9.586-8.742-15.428z"/></g></svg>