<svg id="Capa_1" enable-background="new 0 0 511.978 511.978" height="512" viewBox="0 0 511.978 511.978" width="512" xmlns="http://www.w3.org/2000/svg"><g><path d="m346.978.029h-176.039c-74.679 0-153.166 58.055-167.791 132.713-6.647 33.923-2.721 68.202 11.354 99.131 27.107 59.565 42.833 125.153 55.444 181.954l5.645 25.411 29.102-6.492 17.482 79.202 87.966-19.397-17.43-79.439 29.164-6.506-3.254-14.633c-3.302-14.845.427-30.369 10.23-42.593 9.863-12.298 24.314-19.351 39.647-19.351h72.831c91.979 0 170.648-69.747 170.648-165 .001-90.981-74.018-165-164.999-165zm-201.973 476.164-11.031-49.979 29.456-6.571 10.984 50.064zm196.324-176.164h-72.831c-24.481 0-47.463 11.146-63.05 30.581-12.289 15.323-18.531 34.016-17.979 52.933l-89.105 19.877c-12.798-57.377-28.879-123.153-56.558-183.974-11.468-25.201-14.656-53.189-9.22-80.937 11.322-57.789 75.972-108.48 138.352-108.48h176.039c74.439 0 135 60.561 135 135 .001 84.504-71.511 135-140.648 135z"/><path d="m346.978 60.029h-176.038c-48.357 0-100.268 40.161-108.908 84.255-4.293 21.875-1.908 42.986 7.086 62.743 23.811 52.332 39.001 108.609 48.355 146.387l3.522 14.226 38.221-8.526 2.465-8.547c13.675-47.419 57.602-80.537 106.821-80.537h72.821c60.053 0 111.273-44.972 110.658-106.151-.575-57.521-47.398-103.85-105.003-103.85zm-5.655 180h-72.821c-55.249 0-105.239 32.835-128.092 82.02-9.761-36.759-23.875-83.243-43.987-127.449-6.35-13.947-8.017-28.932-4.953-44.543 5.781-29.499 44.922-60.028 79.47-60.028h176.038c40.948 0 74.596 33.264 75.006 74.151.449 44.92-37.916 75.849-80.661 75.849z"/><path d="m346.978 120.029c-24.813 0-45 20.187-45 45s20.187 45 45 45 45-20.187 45-45-20.187-45-45-45zm0 60c-8.271 0-15-6.729-15-15s6.729-15 15-15 15 6.729 15 15-6.729 15-15 15z"/></g></svg>