<?xml version="1.0" encoding="iso-8859-1"?>
<!-- Generator: Adobe Illustrator 19.0.0, SVG Export Plug-In . SVG Version: 6.00 Build 0)  -->
<svg version="1.1" id="Capa_1" xmlns="http://www.w3.org/2000/svg" xmlns:xlink="http://www.w3.org/1999/xlink" x="0px" y="0px"
	 viewBox="0 0 480 480" style="enable-background:new 0 0 480 480;" xml:space="preserve">
<g>
	<g>
		<path d="M342.784,163.76L304,101.704V64c8.837,0,16-7.163,16-16V16c0-8.837-7.163-16-16-16H176c-8.837,0-16,7.163-16,16v32
			c0,8.837,7.163,16,16,16v37.704l-38.784,62.056c-0.795,1.271-1.216,2.741-1.216,4.24v288c0,13.255,10.745,24,24,24h160
			c13.255,0,24-10.745,24-24V168C344,166.501,343.579,165.031,342.784,163.76z M176,16h128v32H176V16z M288,64v32h-96V64H288z
			 M328,456c0,4.418-3.582,8-8,8H160c-4.418,0-8-3.582-8-8V170.296L188.432,112h103.136L328,170.296V456z"/>
	</g>
</g>
<g>
	<g>
		<path d="M203.064,208.608c-2.99-1.239-6.432-0.553-8.72,1.736L184,220.688l-10.344-10.344c-3.125-3.124-8.19-3.123-11.314,0.002
			c-1.499,1.5-2.342,3.534-2.342,5.654v32h16v-12.688l2.344,2.344c3.124,3.123,8.188,3.123,11.312,0l2.344-2.344V248h16v-32
			C208.001,212.765,206.053,209.847,203.064,208.608z"/>
	</g>
</g>
<g>
	<g>
		<rect x="216" y="208" width="16" height="40"/>
	</g>
</g>
<g>
	<g>
		<path d="M256,232v-24h-16v32c0,4.418,3.582,8,8,8h24v-16H256z"/>
	</g>
</g>
<g>
	<g>
		<path d="M320,208h-16c0,4.418-3.582,8-8,8v-8h-16v40h16v-16c4.418,0,8,3.582,8,8v8h16v-8c0.005-5.907-2.178-11.607-6.128-16
			C317.822,219.607,320.005,213.907,320,208z"/>
	</g>
</g>
<g>
</g>
<g>
</g>
<g>
</g>
<g>
</g>
<g>
</g>
<g>
</g>
<g>
</g>
<g>
</g>
<g>
</g>
<g>
</g>
<g>
</g>
<g>
</g>
<g>
</g>
<g>
</g>
<g>
</g>
</svg>
