<svg id="Capa_1" enable-background="new 0 0 512 512" height="512" viewBox="0 0 512 512" width="512" xmlns="http://www.w3.org/2000/svg"><g><path d="m392 69.569v-69.569h-272v69.569l-75 90v352.431h422v-352.431zm27.974 80.431h-85.949l42.975-51.569zm-57.974-120v30h-212v-30zm-219.974 60h202.949l-50 60h-202.949zm144.974 120.467c-55.655 3.425-85.771 25.793-114.952 47.497-26.32 19.577-51.319 38.169-97.048 41.505v-119.469h212zm-212 119.066c55.655-3.425 85.771-25.793 114.952-47.497 26.32-19.577 51.319-38.169 97.048-41.505v241.469h-212zm242 152.467v-302h120v302z"/></g></svg>