<svg id="Слой_1" data-name="Слой 1" xmlns="http://www.w3.org/2000/svg" viewBox="0 0 380.66 71.61"><defs><style>.cls-1,.cls-3{fill:#006b58;}.cls-1{stroke:#006b58;}.cls-1,.cls-2{stroke-miterlimit:3.86;stroke-width:0;}.cls-2,.cls-4,.cls-5{fill:#1d1d1b;}.cls-2{stroke:#1d1d1b;}.cls-5{fill-rule:evenodd;}</style></defs><title>SFT</title><path class="cls-1" d="M48.14,9H15.66Q5.13,9.65,5.28,19.83L21.59,34.61q3.12,3.06,5.56,0L48.14,9Z" transform="translate(-5.27 -9)"/><path class="cls-1" d="M63.73,50.39V19Q63.12,8.86,53.28,9L40,25.23c-2,2-2,3.79,0,5.36l23.73,19.8Z" transform="translate(-5.27 -9)"/><path class="cls-1" d="M5.27,27.65V55.89c.13,6.22,2.17,9.65,6.82,9.73h7.74l9.73-11.93a4.39,4.39,0,0,0,0-5.49L5.27,27.65Z" transform="translate(-5.27 -9)"/><path class="cls-1" d="M25.82,65.3,42.51,46.39c2.43-2.33,4.36-2.13,6.83,0L61.1,55.77c2.64,2.48,3,3.87,1.27,6-2.36,2.75-3.87,3.66-6,3.82L25.82,65.3Z" transform="translate(-5.27 -9)"/><path class="cls-2" d="M114.09,11.7l-5.86,11.59H90.69C85.6,23.09,83.46,26,88,29c12,6.85,20,13.94,20.66,22.28,0,9.22-6,15.7-13.93,15.7H73.27V54.77H92.18c4.56.29,6-2.87,3.12-6.58-.86-1.24-6.87-5.27-17.55-12.84-12.46-8-6.6-23,3.59-23.77l32.75.12Z" transform="translate(-5.27 -9)"/><path class="cls-2" d="M113.84,66.36V27.13q-.32-15.22,14.68-15.93h17.2c5.95.25,6.33,11.72,0,12.09H133.63q-5.4.21-6,4.83c.18,4.06,1.59,6.06,4.23,6h8.73V45.82H127.77v20l-13.93.5Z" transform="translate(-5.27 -9)"/><path class="cls-2" d="M151.8,11.2c4,4,3,8.49,0,12.09h11.34V66.48h13.8V23.29h13.21c5.61,0,5.61-12.09,0-12.09Z" transform="translate(-5.27 -9)"/><path class="cls-3" d="M265.74,46c0-2.48-.15-5.93,2.27-8.41a6.52,6.52,0,0,1,4.83-1.91h1.39c.51,0,1.76-.07,1.76-1.46v-7.1c0-.95-.15-1.76-2.2-1.76a9.73,9.73,0,0,0-6.59,2.34c-.66.52-.87.66-1,.66s-.37-.07-.37-.58V27c0-1-.88-1-1.32-1h-6.66c-.95,0-2,.14-2,2.05V64.6c0,1,.15,2.05,2,2.05h5.86c.95,0,2.05-.15,2.05-2.05V46Z" transform="translate(-5.27 -9)"/><path class="cls-4" d="M265.74,46c0-2.48-.15-5.93,2.27-8.41a6.52,6.52,0,0,1,4.83-1.91h1.39c.51,0,1.76-.07,1.76-1.46v-7.1c0-.95-.15-1.76-2.2-1.76a9.73,9.73,0,0,0-6.59,2.34c-.66.52-.87.66-1,.66s-.37-.07-.37-.58V27c0-1-.88-1-1.32-1h-6.66c-.95,0-2,.14-2,2.05V64.6c0,1,.15,2.05,2,2.05h5.86c.95,0,2.05-.15,2.05-2.05V46Z" transform="translate(-5.27 -9)"/><path class="cls-5" d="M281.09,52.87c0,5.8,1.53,15.33,14.5,15.33s14.49-9.53,14.49-15.33v-13c0-5.8-1.53-15.33-14.49-15.33s-14.5,9.53-14.5,15.33v13Zm10.38-14.72c0-4,2.21-5,4.12-5s4.11,1,4.11,5V54.63c0,4-2.21,5-4.11,5s-4.12-1-4.12-5V38.15Z" transform="translate(-5.27 -9)"/><path class="cls-5" d="M367.43,68.14c0-.39.23-.55.39-.55,1.33,0,1.8,2.35,7.29,2.35,10,0,10.82-8.86,10.82-14.35V39.75c0-4.79-.15-14.67-10.27-14.67a9.21,9.21,0,0,0-6.9,2.51c-.24.16-.39.4-.71.4-.47,0-.55-.24-.55-.55v-.63c0-.63-.31-1.1-1.41-1.1H359c-1,0-2.2.16-2.2,2.2v50.5c0,1,.16,2.2,2.2,2.2h6.27c1,0,2.2-.16,2.2-2.2V68.14Zm0-28.31c0-1.65.23-5.18,3.84-5.18s3.84,3.53,3.84,5.18V55.2c0,1.65-.23,5.17-3.84,5.17s-3.84-3.52-3.84-5.17V39.83Z" transform="translate(-5.27 -9)"/><path class="cls-3" d="M347.62,27.11c0-2-1.19-2.12-2.22-2.12h-6.34c-1,0-2.22.15-2.22,2.12v25c0,1.74.08,5.58-3.88,5.58a3.49,3.49,0,0,1-3.72-3.54v-27c0-2-1.19-2.12-2.22-2.12h-6.34c-1,0-2.22.15-2.22,2.12V56.29c0,8.38,5.31,11.24,10.15,11.24a10.2,10.2,0,0,0,7-2.41c.16-.15.31-.38.55-.38s.71-.07.71.53v.23a1.47,1.47,0,0,0,1.51,1.43h7c1,0,2.22-.15,2.22-2.11V27.11Z" transform="translate(-5.27 -9)"/><path class="cls-4" d="M347.62,27.11c0-2-1.19-2.12-2.22-2.12h-6.34c-1,0-2.22.15-2.22,2.12v25c0,1.74.08,5.58-3.88,5.58a3.49,3.49,0,0,1-3.72-3.54v-27c0-2-1.19-2.12-2.22-2.12h-6.34c-1,0-2.22.15-2.22,2.12V56.29c0,8.38,5.31,11.24,10.15,11.24a10.2,10.2,0,0,0,7-2.41c.16-.15.31-.38.55-.38s.71-.07.71.53v.23a1.47,1.47,0,0,0,1.51,1.43h7c1,0,2.22-.15,2.22-2.11V27.11Z" transform="translate(-5.27 -9)"/><path class="cls-4" d="M228.28,42.59v-4.8A1.91,1.91,0,0,1,230.06,36h16a1.7,1.7,0,0,1,1.78,1.77V51.14a5.61,5.61,0,0,1-.1,1V67H239V64.53a15.9,15.9,0,0,1-8.08,2.74c-8.05.36-19.19-1.45-19.19-20.72v-17c0-19.11,13.91-20.74,21.45-20,11.35,1.12,13.73,12,13.73,13.63l.09,6c-.06.26-11.15.26-11.48,0-.49-.37,1.63-8.34-4.58-8.74-9-.57-7.27,6.71-7.27,12V43.8c0,5.08-.41,13,6.37,13,4.75,0,5.88-3.47,5.88-7.18V45.9c0-.57,0-1.61-1.53-1.61H230a1.62,1.62,0,0,1-1.7-1.7Z" transform="translate(-5.27 -9)"/></svg>